<svg width="33" height="20" viewBox="0 0 33 20" fill="none" xmlns="http://www.w3.org/2000/svg">
<g clip-path="url(#clip0_16423_13567)">
<path d="M0.0563965 0.0662231H32.9263V19.9315H0.0563965V0.0662231Z" fill="white"/>
<path d="M14.8477 11.9793V19.9315H18.1351V11.9793H32.9265V8.00795H18.1351V0.0662231H14.8477V8.00795H0.0563965V11.9793H14.8477Z" fill="#CF142B"/>
<path d="M19.2314 6.49655V0.0662231H29.8737L19.2314 6.49655ZM19.2314 13.5011V19.9315H29.8737L19.2314 13.5011ZM13.7516 13.5011V19.9315H3.10945L13.7516 13.5011ZM13.7516 6.49655V0.0662231H3.10945L13.7516 6.49655ZM0.0566406 1.91285V6.68781H7.9591L0.0566406 1.91285ZM32.9265 1.91285V6.68781H25.024L32.9265 1.91285ZM32.9265 18.0849V13.3099H25.024L32.9265 18.0849ZM0.0566406 18.0849V13.3099H7.9591L0.0566406 18.0849Z" fill="#00247D"/>
<path d="M32.9263 0.0662231H31.1007L20.1614 6.68781H21.9871L32.9436 0.0662231M12.8213 13.3095H10.9957L0.0563965 19.9311H1.88207L12.8385 13.3095M9.18456 6.69298H11.0101L0.0563965 0.0662231V1.17682L9.18456 6.69298ZM23.7925 13.307H21.9668L32.9205 19.9338V18.8232L23.7925 13.307Z" fill="#CF142B"/>
</g>
<defs>
<clipPath id="clip0_16423_13567">
<rect width="33" height="20" fill="white"/>
</clipPath>
</defs>
</svg>
