<svg xmlns="http://www.w3.org/2000/svg" width="1919" height="164" viewBox="0 0 1919 164" fill="none"><path d="M1919 49.8482V164.002H959V0.629017C965.5 0.26314 972.01 0.141181 978.51 0.245717C1015.28 0.855512 1052.02 8.85254 1087.98 24.2194L1177.16 62.3577C1220.66 80.9652 1266.06 81.5401 1309.71 64.0651L1416.89 21.153C1489.36 -7.85584 1564.71 -7.01955 1636.97 23.6096L1734.99 65.1453C1774.66 81.9582 1815.92 83.8225 1856.03 70.5986L1919 49.8482Z" fill="white"></path><path d="M960 0.628906V164.002H0V35.9447L82.71 68.6298C126.34 85.8782 171.67 85.0942 215.09 66.3474L309.03 25.7873C383.24 -6.23564 460.77 -6.81059 535.14 24.1496L629.52 63.4378C672.51 81.3309 717.29 81.6794 760.36 64.4309L867.93 21.3619C898.26 9.21831 929.1 2.31891 960 0.628906Z" fill="white"></path></svg>