<svg width="46" height="49" viewBox="0 0 46 49" fill="none" xmlns="http://www.w3.org/2000/svg">
<path fill-rule="evenodd" clip-rule="evenodd" d="M43.6468 25.8423L43.1364 24.6173C43.0427 24.4097 42.8859 24.237 42.6883 24.1237C42.4907 24.0104 42.2624 23.9624 42.0359 23.9864C41.3826 24.0885 40.7109 24.3335 39.9963 24.3948C39.8385 24.3984 39.6827 24.3583 39.5462 24.2791C39.4096 24.1998 39.2976 24.0844 39.2225 23.9456C39.144 23.8093 39.1027 23.6547 39.1027 23.4974C39.1027 23.3402 39.144 23.1856 39.2225 23.0493C39.4947 22.5484 39.8418 22.1067 40.2637 21.7243C40.4271 21.5609 40.8946 21.173 41.16 20.8668C41.4009 20.6113 41.5453 20.28 41.5684 19.9296C41.5884 19.6801 41.5535 19.4292 41.4663 19.1946C41.4663 18.9313 41.1192 18.5638 41.0784 18.4004L39.8738 15.9341C39.6749 15.5388 39.4505 15.1569 39.2021 14.7908C39.0001 14.5244 38.7111 14.3373 38.3854 14.262C38.1238 14.2041 37.8528 14.2041 37.5912 14.262C37.3462 14.262 36.9787 14.5682 36.8358 14.6295L34.9411 15.5278C34.7574 15.3236 34.5736 15.1603 34.5328 15.1195C34.0863 14.6404 33.5258 14.2822 32.9035 14.0782C32.2975 13.8846 31.6573 13.822 31.0252 13.8945C29.9431 14.0129 28.9509 14.5478 28.2547 15.3849C27.907 15.7879 27.6461 16.2582 27.488 16.7665C27.33 17.2747 27.2782 17.8101 27.3359 18.3392C27.4039 18.771 27.5346 19.1905 27.7238 19.5846L26.948 19.9113L25.7271 20.5013C24.6654 21.4201 25.1146 22.396 26.2579 21.9488L27.5401 21.4384C27.9076 21.3159 28.3976 21.2343 28.8263 21.0913C29.0768 21.0056 29.3143 20.8899 29.5389 20.7443C29.7104 20.593 29.8273 20.3894 29.8715 20.1651C29.9158 19.9407 29.885 19.708 29.7839 19.5029C29.7839 19.3804 29.5593 19.0742 29.5593 19.0538L29.3143 18.1554C29.311 17.6431 29.5005 17.1483 29.8451 16.7691C30.228 16.4514 30.7137 16.2844 31.211 16.2995C31.5053 16.2915 31.7978 16.3473 32.0685 16.4629C32.3044 16.5627 32.5135 16.7165 32.679 16.9121C32.679 16.9121 33.1077 17.647 33.271 17.892C33.3962 18.1014 33.5714 18.2763 33.781 18.4011C33.9905 18.5258 34.2279 18.5965 34.4715 18.6066C34.7186 18.5664 34.9548 18.476 35.1657 18.3412L35.819 17.9533L37.632 17.2387L38.755 19.4417L38.857 19.7479L38.51 19.9929C37.775 20.7647 37.2482 21.712 36.9787 22.743C36.8846 23.1804 36.8908 23.6334 36.9969 24.068C37.103 24.5026 37.3062 24.9075 37.5912 25.2523C37.8353 25.6067 38.1568 25.901 38.5314 26.1129C38.9059 26.3247 39.3238 26.4486 39.7533 26.4752C40.4005 26.4466 41.0396 26.3241 41.648 26.1077C41.8113 26.3527 42.0359 26.5977 42.0359 26.6181C42.4442 27.4123 42.9138 28.2065 43.3222 29.0028C43.4242 29.2274 43.5039 29.4724 43.606 29.697C43.218 29.8807 42.8505 30.0828 42.4422 30.2462C41.6072 30.5933 40.7313 30.7974 39.8758 31.0833C39.0183 31.3691 38.12 31.7754 37.287 32.1225L34.1877 34.0171L32.1481 35.0175C31.9435 35.128 31.7884 35.3119 31.714 35.5322C31.6396 35.7525 31.6516 35.9928 31.7474 36.2047C31.8432 36.4166 32.0158 36.5842 32.2304 36.6738C32.4449 36.7634 32.6855 36.7684 32.9035 36.6876C34.741 36.1364 36.5418 35.4565 38.2854 34.6501C38.8775 34.4051 39.4879 34.1805 40.08 33.8946C40.67 33.6088 41.303 33.2821 41.8726 32.9575C42.4791 32.5668 43.0646 32.1443 43.6264 31.6917L43.5039 33.9579C43.5039 35.3422 43.5039 35.7301 41.7705 36.9531C40.5047 37.7221 39.1932 38.402 37.8362 38.9927C36.6929 39.6052 35.472 40.134 34.2694 40.6444C33.6365 40.9302 32.9627 41.1956 32.2298 41.459C32.2298 40.9486 32.4135 38.8293 31.4948 38.8293C30.576 38.8293 29.9064 39.3398 30.1697 41.0303C30.2718 41.704 30.3739 41.4794 30.5985 42.1328L25.5025 44.1703C23.6262 44.9666 21.8928 45.9241 20.039 46.6775C19.2836 46.9906 18.5084 47.2492 17.7135 47.4533C17.5108 47.4994 17.3346 47.6241 17.2237 47.8C17.1129 47.9759 17.0765 48.1887 17.1225 48.3915C17.1685 48.5943 17.2932 48.7705 17.4691 48.8813C17.6451 48.9922 17.8578 49.0286 18.0606 48.9825C18.9478 48.7955 19.82 48.543 20.6699 48.2271C22.587 47.6146 24.402 46.8 26.2967 46.1895C28.8672 45.2912 31.4968 44.5154 34.004 43.517C35.7274 42.8207 37.4026 42.0105 39.0183 41.0915C40.4428 40.3438 41.806 39.485 43.0955 38.5231C43.9776 37.7907 44.676 36.8622 45.1352 35.8118C45.2474 35.5979 45.3036 35.3591 45.2985 35.1176C45.2985 34.6684 45.0943 34.0375 45.0739 33.7313C44.931 27.5348 46.644 32.7533 43.6447 25.8423" fill="black"/>
<path fill-rule="evenodd" clip-rule="evenodd" d="M15.4309 47.2494C14.2901 46.7465 13.33 45.9075 12.6788 44.8444C11.6228 43.0216 10.7095 41.1199 9.947 39.1563C9.457 38.0946 9.00783 37.0146 8.55867 35.9345C7.82571 34.3032 5.54313 28.5335 5.48187 28.3497C4.91021 26.943 4.2385 25.5567 3.68725 24.15C3.46267 23.5784 3.23808 23.0087 3.03392 22.4166C2.83179 21.8246 2.52554 20.7466 2.32137 19.8891C2.17017 19.3798 2.04748 18.8624 1.95387 18.3394C1.83075 17.8899 1.8282 17.4158 1.94648 16.9649C2.06475 16.514 2.29968 16.1023 2.62762 15.771C2.99513 15.2606 3.40346 14.791 3.81179 14.3235C4.00371 16.0045 4.28886 17.6698 4.66725 19.3194C5.07558 21.1324 5.74729 22.5391 6.29854 24.3746C6.50271 25.0279 6.56396 25.3546 6.93146 26.3121C7.07316 26.5134 7.27707 26.6625 7.51181 26.7366C7.74655 26.8106 7.99911 26.8055 8.23065 26.722C8.46219 26.6385 8.65987 26.4812 8.79328 26.2743C8.92669 26.0675 8.98845 25.8225 8.96904 25.5771C8.66279 24.7809 8.58112 24.5175 8.33612 23.9254C7.49958 21.9213 6.75228 19.881 6.09642 17.8106C5.72892 16.2998 5.36142 14.8951 5.07558 13.4476C5.07558 13.4476 5.07558 13.3251 4.95308 13.2434C7.42146 12.3451 9.86738 11.2038 12.3541 10.3279C13.4519 9.91366 14.5759 9.57264 15.7188 9.30711C16.4715 8.93961 17.2528 8.64765 18.0626 8.43123C18.2668 8.81915 18.573 9.3704 18.818 9.94206C19.0522 10.428 19.2155 10.937 19.308 11.4692C19.171 11.7055 19.0065 11.9248 18.818 12.1226C18.3496 12.6149 17.9636 13.1795 17.6747 13.7947C17.5177 14.1475 17.4365 14.5294 17.4365 14.9156C17.4365 15.3018 17.5177 15.6836 17.6747 16.0364C17.9585 16.849 18.475 17.5595 19.1651 18.0761C19.8975 18.597 20.8051 18.8096 21.6927 18.6681H22.0806C22.0694 18.7351 22.0694 18.8034 22.0806 18.8703L22.7523 20.5628C23.3648 21.6224 24.5061 20.6649 24.3224 19.8074L23.812 18.2169C23.6869 17.774 23.5369 17.3384 23.3628 16.9123C23.2909 16.749 23.1782 16.6068 23.0355 16.4996C22.8929 16.3923 22.7251 16.3235 22.5482 16.2998C22.3533 16.2552 22.1509 16.2552 21.9561 16.2998C21.7928 16.2998 21.2007 16.4427 21.2211 16.6469C20.9393 16.6147 20.6753 16.493 20.4677 16.2998C20.1821 16.0333 19.971 15.6969 19.8552 15.3239C19.8185 15.2438 19.7995 15.1568 19.7995 15.0687C19.7995 14.9806 19.8185 14.8936 19.8552 14.8135C20.1601 14.3684 20.514 13.9669 20.9169 13.6089C21.362 13.1393 21.6845 12.5656 21.856 11.9388C21.9302 11.2439 21.8247 10.5417 21.5498 9.89919C21.1511 8.83242 20.6592 7.80285 20.0798 6.8224C19.9097 6.56023 19.6671 6.35312 19.3815 6.22626C19.0958 6.0994 18.7795 6.05825 18.471 6.10781C17.3058 6.32559 16.1571 6.61142 15.0246 6.96531C13.8237 7.35633 12.6522 7.83257 11.5191 8.3904C8.93025 9.55415 6.40062 11.0221 3.89346 12.2246L3.44429 12.5309C2.77258 13.223 2.03962 13.9376 1.40671 14.7114C0.943931 15.2545 0.528792 15.8323 0.161292 16.4448C0.0652941 16.6571 0.0105576 16.8857 0 17.1185C0 17.5656 0.102083 18.2169 0.102083 18.4824C0.102083 19.1153 0.224583 19.7278 0.347083 20.3586C0.469583 20.9895 0.67375 22.1329 0.8575 23.0291C1.06167 23.9302 1.3264 24.8136 1.65171 25.6792C2.10087 26.9042 2.61129 28.1251 3.07883 29.3481C3.95675 31.5715 4.81221 33.7928 5.76975 35.9754C6.4435 37.4433 7.17646 38.8909 7.95025 40.2976C8.87921 42.2984 9.9715 44.2216 11.2128 46.0469C12.1668 47.3645 13.5165 48.343 15.0655 48.8399C15.2115 48.8801 15.3663 48.8742 15.5088 48.823C15.6514 48.7719 15.7746 48.6779 15.8617 48.5541C15.9772 48.669 16.1284 48.741 16.2905 48.7582C16.3928 48.7663 16.4958 48.7534 16.593 48.7204C16.6902 48.6873 16.7797 48.6348 16.8559 48.566C16.9322 48.4972 16.9936 48.4136 17.0364 48.3203C17.0793 48.227 17.1026 48.1259 17.1051 48.0232C17.3338 47.1045 17.4903 46.1735 17.5747 45.2302C17.0234 44.1686 16.4313 43.8235 15.535 44.5973C15.3247 45.4671 15.288 46.3674 15.4309 47.2494Z" fill="black"/>
<path fill-rule="evenodd" clip-rule="evenodd" d="M21.9152 3.55959L22.4848 4.29459C22.689 4.51918 22.8932 4.74376 23.1177 4.94589C25.1553 6.98347 25.1553 6.98347 25.6862 6.80176C26.6049 6.35259 25.2778 3.70251 25.1145 3.41668C24.9324 3.08764 24.7056 2.78533 24.4407 2.51835C24.1987 2.24307 23.9253 1.99708 23.6261 1.78539C20.9556 -0.252197 20.4901 0.439928 20.3064 0.725762C20.1226 1.0116 20.2247 1.46076 21.9172 3.55959M29.9063 6.10759C30.1309 6.10759 30.5596 6.33218 31.6172 4.07001C31.7275 3.85496 31.8091 3.63037 31.8622 3.39626C31.8622 3.17168 31.8622 2.94709 31.9847 2.72251C32.1889 0.562428 32.2705 0.276595 31.7193 0.0315951C31.4947 0.0315951 30.8434 -0.417571 29.6817 2.07122C29.5529 2.30184 29.4567 2.54919 29.3959 2.80622C29.3183 3.05122 29.2706 3.30235 29.253 3.55959C29.253 3.55959 29.1509 6.10759 29.9063 6.10759ZM37.4482 8.14722C37.7545 8.0043 38.0403 7.84097 38.3261 7.67764L39.202 7.12639C41.5867 5.55634 42.0562 5.4563 41.7908 4.7213C41.6683 4.41505 41.4846 3.76172 38.122 4.88464C37.7429 5.02056 37.3744 5.18434 37.0195 5.37464C36.6664 5.57546 36.3323 5.80779 36.0211 6.0688C35.5311 6.51593 33.5547 8.59434 34.2897 9.28851C35.0227 9.98268 34.7593 9.55597 37.4482 8.14722ZM30.8638 35.1381L29.7001 32.1205C30.0472 31.9163 30.4351 31.753 30.4555 31.7325C31.1487 31.1523 31.6886 30.4105 32.0276 29.5725C32.2798 28.9242 32.3428 28.2176 32.2093 27.5349C32.137 27.1208 31.9803 26.726 31.7488 26.3751C31.5173 26.0242 31.2161 25.7247 30.8638 25.4953C29.9636 24.9146 28.8906 24.6622 27.8258 24.7807L26.6437 25.0257L26.3783 24.699L25.0941 22.4164C25.0941 22.4164 24.7266 21.2547 24.3795 21.1526C23.4015 20.8668 21.5477 22.6022 20.7719 23.0698C20.4697 23.2535 20.1566 23.4168 19.8327 23.5598C19.651 23.5598 18.816 23.866 18.4893 24.0293C18.2574 24.1627 18.0775 24.3707 17.9789 24.6194C17.9431 24.8014 17.9431 24.9886 17.9789 25.1706C17.9789 25.4769 18.2443 26.0873 18.2443 26.3323C18.277 26.8489 18.1851 27.3654 17.9789 27.8411C17.8217 28.2274 17.5322 28.5451 17.1622 28.7374C17.0377 28.8068 16.8975 28.8432 16.7549 28.8432C16.6123 28.8432 16.4721 28.8068 16.3476 28.7374C15.9024 28.4863 15.5084 28.1539 15.1859 27.7574C14.8728 27.3695 14.5325 27.0027 14.165 26.657C13.8321 26.3976 13.4269 26.2478 13.0054 26.2282C12.7153 26.2452 12.4278 26.2931 12.1479 26.3711C11.4129 26.5345 10.6595 26.9224 9.96737 27.0041H9.70196C9.04862 26.7386 7.29687 27.9228 7.54187 28.6149C7.54187 28.7578 9.57946 33.468 10.294 35.1381C10.8249 36.4651 11.3537 37.7677 11.9253 39.054C12.3146 40.0435 12.8032 40.9813 13.3912 41.8674C13.7601 42.3193 14.1889 42.7065 14.6775 43.0291C15.4766 43.4585 16.3611 43.7051 17.2671 43.751C18.1731 43.7969 19.078 43.641 19.9164 43.2945C21.3117 42.9115 22.6749 42.42 23.9936 41.8245C25.2595 41.2106 26.4892 40.5315 27.6829 39.7869C28.1933 39.4807 29.1529 39.0928 29.8859 38.6232C29.8859 38.7865 31.2926 37.7881 31.4151 37.3002C31.4598 36.5398 31.2672 35.7842 30.8638 35.1381ZM28.9671 30.0012C28.9671 30.0012 28.0504 30.6137 27.7442 30.8587C27.5334 31.0097 27.3722 31.2201 27.2814 31.4629C27.1905 31.7058 27.1739 31.9702 27.2337 32.2225L28.4179 35.8731L28.6221 36.2406L28.2137 36.4651C27.5196 36.8531 26.6641 37.1981 26.1741 37.4635C25.0532 38.1373 23.912 38.7681 22.7094 39.3378C21.5421 39.8947 20.3357 40.3655 19.0997 40.7465C18.5015 40.9507 17.8768 41.0813 17.2459 41.1344C16.7012 41.1806 16.1537 41.0893 15.6534 40.869C15.3229 40.6894 15.0428 40.4296 14.8388 40.1136C14.3961 39.4631 14.0011 38.7814 13.6567 38.074C12.8481 36.5456 12.0802 34.9961 11.3537 33.4271C10.6187 31.855 10.2307 30.8975 9.68154 29.6133H10.1103C13.8608 28.6353 12.4745 28.8579 13.23 29.6133C13.9037 30.3605 14.7612 30.922 15.7167 31.2466C16.1172 31.3734 16.5398 31.4153 16.9574 31.3696C17.3751 31.3239 17.7786 31.1916 18.1422 30.9812C18.8215 30.5994 19.3636 30.0138 19.6918 29.3071C20.141 28.3781 20.3105 27.3368 20.1818 26.3119C20.1289 26.1256 20.0386 25.9519 19.9164 25.8015C20.2022 25.6586 20.5085 25.4136 20.5902 25.3728C20.9686 25.1686 21.3354 24.944 21.6906 24.699C22.3235 24.2519 22.934 23.7435 23.5853 23.2943L24.8103 25.7198C24.926 26.0724 25.0818 26.4058 25.2778 26.7203C25.4365 26.9201 25.6606 27.0575 25.9107 27.1082C26.1884 27.149 26.4668 27.149 26.7458 27.1082C27.1541 27.1082 27.6237 26.904 27.9912 26.8836C28.4935 26.853 28.9937 26.9653 29.4367 27.2082C29.6061 27.2861 29.7552 27.4022 29.8721 27.5475C29.989 27.6927 30.0706 27.8631 30.1105 28.0453C30.1551 28.4136 30.0761 28.7864 29.8859 29.1049C29.6327 29.4493 29.3333 29.7481 28.9875 30.0012H28.9671Z" fill="#0095DA"/>
</svg>
