<svg width="22" height="22" viewBox="0 0 22 22" fill="none" xmlns="http://www.w3.org/2000/svg">
<path d="M-0.000116348 16C-0.000116348 19.31 2.68988 22 5.99988 22V20.5C3.49988 20.5 1.49988 18.5 1.49988 16H-0.000116348ZM21.9999 6C21.9999 2.69 19.3099 0 15.9999 0V1.5C18.4999 1.5 20.4999 3.5 20.4999 6H21.9999ZM14.9999 3.32L19.5899 7.92C22.8099 11.14 22.8099 16.37 19.5899 19.59C16.3699 22.81 11.1399 22.81 7.91988 19.59L0.849884 12.5C0.359884 12.03 0.359884 11.24 0.849884 10.75C0.965998 10.6336 1.10394 10.5412 1.2558 10.4782C1.40766 10.4152 1.57047 10.3828 1.73488 10.3828C1.8993 10.3828 2.06211 10.4152 2.21397 10.4782C2.36583 10.5412 2.50377 10.6336 2.61988 10.75L7.03988 15.17L7.74988 14.46L1.20988 7.92C0.719883 7.43 0.719883 6.64 1.20988 6.15C1.69988 5.66 2.49988 5.66 2.99988 6.15L8.80988 12L9.49988 11.27L2.62988 4.38C2.13988 3.89 2.13988 3.1 2.62988 2.61C3.11988 2.12 3.90988 2.12 4.39988 2.61L11.2899 9.5L11.9999 8.8L6.49988 3.32C5.99988 2.83 5.99988 2.04 6.49988 1.55C6.99988 1.06 7.77988 1.06 8.26988 1.55L15.8899 9.17C15.2926 9.93938 14.9966 10.9002 15.0574 11.8723C15.1181 12.8444 15.5315 13.761 16.2199 14.45L16.9299 13.74C16.3681 13.1775 16.0525 12.415 16.0525 11.62C16.0525 10.825 16.3681 10.0625 16.9299 9.5L17.2799 9.15L13.2099 5.08C12.7199 4.59 12.7199 3.8 13.2099 3.31C13.7099 2.83 14.4999 2.83 14.9999 3.32Z" fill="white"/>
</svg>
