<svg width="201" height="84" viewBox="0 0 201 84" fill="none" xmlns="http://www.w3.org/2000/svg">
<g clip-path="url(#clip0_20115_761)">
<path d="M70.4876 24.6898C74.0793 21.0923 73.6574 16.458 70.5438 13.3394C67.4302 10.2207 62.8062 9.79535 59.2117 13.3957C55.6199 16.9933 54.4189 23.253 57.5325 26.3717C60.6461 29.4903 66.8958 28.2873 70.4876 24.6898Z" fill="#ED1C24"/>
<path d="M13.3825 59.3017C9.79076 62.8993 10.2127 67.5336 13.3263 70.6522C16.4399 73.7708 21.0638 74.1962 24.6584 70.5958C28.2501 66.9983 29.4511 60.7385 26.3375 57.6199C23.2239 54.5013 16.9743 55.7042 13.3825 59.3017Z" fill="#FED103"/>
<path d="M59.2117 70.593C62.8034 74.1906 67.4302 73.768 70.5438 70.6494C73.6574 67.5307 74.0821 62.8993 70.4876 59.2989C66.8958 55.7014 60.6461 54.4984 57.5325 57.6171C54.4189 60.7357 55.6199 66.9955 59.2117 70.593Z" fill="#0095DA"/>
<path d="M24.6584 13.3957C21.0666 9.79815 16.4398 10.2207 13.3262 13.3394C10.2126 16.458 9.78793 21.0894 13.3825 24.6898C16.9742 28.2873 23.2239 29.4903 26.3375 26.3716C29.4511 23.253 28.2501 16.9932 24.6584 13.3957Z" fill="#56C1A7"/>
<path d="M42.0855 34.1922C45.0698 27.831 44.2485 19.7625 41.9365 13.0605C39.1154 4.88781 34.0892 -1.24802 31.0853 0.216915C25.9803 2.69604 37.6191 21.0979 29.1755 29.2339C21.0442 37.6517 2.70009 26.0195 0.216523 31.1271C-1.24605 34.1443 4.89395 39.1758 13.0534 41.9958C19.8516 39.6462 28.0589 38.8293 34.4492 41.9958L33.8445 41.3901C32.7982 40.3421 32.2807 38.9786 32.2807 37.6038C32.2807 36.229 32.7982 34.8655 33.8445 33.8175C35.9315 31.7271 39.3179 31.7271 41.4049 33.8175L41.7846 34.1978L41.9337 34.3443L42.0827 34.1922H42.0855Z" fill="#56C1A7"/>
<path d="M83.6481 52.8673C81.1729 57.9805 62.8007 46.323 54.6778 54.7801C46.2736 62.9246 57.887 81.2983 52.7877 83.7859C49.7754 85.2508 44.752 79.1009 41.9365 70.9283C39.5852 64.1191 38.7695 55.8986 41.9365 49.4979L49.4238 41.9986H49.4294C49.4576 42.0127 49.4829 42.0268 49.511 42.0408C49.7557 42.162 50.0004 42.2718 50.2507 42.3817C50.442 42.4691 50.6304 42.5451 50.8273 42.6212C51.1395 42.7451 51.4602 42.8606 51.778 42.9677C52.0367 43.055 52.3011 43.1367 52.5655 43.2128C52.8046 43.2804 53.0409 43.3424 53.2856 43.4044C53.5781 43.472 53.8706 43.5396 54.1631 43.6016C54.4275 43.6551 54.6947 43.703 54.9506 43.7452C54.9703 43.7509 54.9928 43.7509 55.0041 43.7593C55.2685 43.7988 55.5357 43.841 55.8057 43.8748C56.0701 43.9086 56.3373 43.9424 56.6073 43.9706C56.8942 43.9903 57.1839 44.0101 57.4708 44.0326C57.7577 44.0523 58.0361 44.0664 58.3146 44.0748C58.593 44.0805 58.8799 44.0889 59.1584 44.0889H59.178C59.4565 44.0889 59.7434 44.0833 60.0275 44.0748C60.3594 44.0608 60.6997 44.0467 61.0344 44.027C61.2735 44.0129 61.5097 43.9988 61.7488 43.9734C62.4548 43.9114 63.1636 43.8298 63.8639 43.7283C64.1564 43.6861 64.4489 43.641 64.7415 43.5847C65.048 43.5368 65.3546 43.4748 65.6584 43.4156C65.965 43.3536 66.2631 43.2917 66.5697 43.2241C68.0238 42.8916 69.4526 42.4803 70.8196 42.0042C78.9791 44.8299 85.105 49.8642 83.6424 52.8729L83.6481 52.8673Z" fill="#0095DA"/>
<path d="M73.4634 40.9759C72.614 41.345 71.7309 41.6831 70.8252 41.9986C69.4582 42.4747 68.0294 42.8832 66.5753 43.2184C66.2687 43.286 65.9706 43.348 65.664 43.41C65.3574 43.472 65.0508 43.5311 64.7471 43.579C64.4545 43.6326 64.162 43.6804 63.8695 43.7227C63.1692 43.8241 62.4632 43.9058 61.7544 43.9678C61.5153 43.996 61.2791 44.0072 61.04 44.0213C60.7081 44.041 60.3678 44.0551 60.0331 44.0692C59.7462 44.0748 59.4621 44.0833 59.1836 44.0833H59.164C58.8855 44.0833 58.5986 44.0777 58.3202 44.0692C58.0417 44.0636 57.7633 44.0495 57.4764 44.027C57.1895 44.0072 56.8998 43.9847 56.6129 43.965C56.3401 43.9368 56.0757 43.903 55.8113 43.8692C55.5385 43.8354 55.2741 43.7931 55.0097 43.7537C54.9956 43.7481 54.9759 43.7481 54.9562 43.7396C54.6975 43.6973 54.4331 43.6523 54.1687 43.5959C53.8762 43.534 53.5837 43.4663 53.2912 43.3987C53.0465 43.3368 52.8074 43.2748 52.5711 43.2072C52.3067 43.1311 52.0395 43.0494 51.7836 42.9621C51.4629 42.8522 51.1451 42.7367 50.8329 42.6156C50.636 42.5395 50.4448 42.4662 50.2563 42.3761C50.006 42.2662 49.7613 42.1592 49.5166 42.0352C49.4885 42.0211 49.4631 42.007 49.435 41.993L49.5025 41.9169L50.0257 41.3844C50.9285 40.4717 51.4404 39.3279 51.5614 38.1419C51.7189 36.5952 51.207 34.9951 50.0257 33.8118C47.9387 31.7215 44.5523 31.7215 42.4653 33.8118L42.0912 34.1865C45.0754 27.8253 44.2541 19.7569 41.9421 13.0548C44.7632 4.88218 49.7894 -1.25365 52.7933 0.211285C57.8983 2.69041 46.2652 21.0838 54.689 29.2227C62.8148 37.6601 81.1785 26.0082 83.6537 31.1214C84.9531 33.7978 80.2616 38.0686 73.4691 40.9703L73.4634 40.9759Z" fill="#ED1C24"/>
<path d="M41.9365 70.9283C39.121 79.1009 34.0976 85.2508 31.0853 83.7859C25.9803 81.3011 37.605 62.919 29.1811 54.7745L29.1755 54.7604C21.0442 46.3427 2.70009 57.9748 0.216523 52.8673C-1.24605 49.8501 4.89395 44.8186 13.0534 41.9986C19.8516 39.6491 28.0589 38.8321 34.4492 41.9986L41.9365 49.4979C38.7694 55.8986 39.5851 64.1191 41.9365 70.9283Z" fill="#FED103"/>
<path d="M114.317 37.5249C114.033 37.5249 113.752 37.4714 113.479 37.3643C113.206 37.2573 112.973 37.0967 112.784 36.8826C112.666 36.7643 112.576 36.615 112.517 36.4347C112.458 36.2544 112.427 36.0712 112.427 35.8797C112.475 34.4514 112.528 33.0315 112.587 31.6257C112.646 30.2199 112.7 28.8029 112.748 27.3718C112.556 27.4197 112.182 27.4845 111.623 27.569C111.063 27.6535 110.469 27.7352 109.839 27.8197C109.209 27.9042 108.613 27.9803 108.056 28.0535C107.496 28.124 107.111 28.1718 106.897 28.1972V30.2171C106.897 30.6594 106.892 31.0735 106.88 31.468C106.869 31.8624 106.864 32.1187 106.864 32.237V32.7019C106.911 32.8456 106.9 33.0963 106.827 33.4513C106.757 33.809 106.672 34.0598 106.577 34.2006C106.385 34.5359 106.101 34.7612 105.722 34.8796C105.603 34.9275 105.477 34.9641 105.348 34.9866C105.215 35.0092 105.092 35.0232 104.973 35.0232C104.855 35.0232 104.729 35.012 104.599 34.9866C104.467 34.9641 104.343 34.9275 104.225 34.8796C103.964 34.8091 103.725 34.6824 103.511 34.5049C103.297 34.3246 103.142 34.1189 103.047 33.8795C102.999 33.7611 102.976 33.6287 102.976 33.4851C102.976 33.3414 102.965 33.2118 102.94 33.0907C102.892 32.9244 102.85 32.7695 102.816 32.6258C102.78 32.4821 102.751 32.3413 102.726 32.1976C102.701 32.0793 102.69 31.8539 102.69 31.5187V28.6958C102.476 28.7437 102.256 28.7663 102.029 28.7663C101.801 28.7663 101.595 28.7437 101.404 28.6958C101.143 28.648 100.892 28.5465 100.656 28.3916C100.417 28.2366 100.24 28.0535 100.122 27.8366C99.9557 27.5492 99.9079 27.2337 99.9782 26.89C100.048 26.5435 100.214 26.2759 100.479 26.0871C100.811 25.8505 101.174 25.6871 101.567 25.6054C101.961 25.5209 102.346 25.4335 102.726 25.3378C102.774 23.2643 102.816 21.2049 102.85 19.154C102.886 17.1059 102.926 15.0438 102.974 12.9703C102.996 12.8745 103.016 12.6801 103.027 12.3815C103.038 12.0829 103.033 11.8885 103.01 11.7927C102.915 11.5307 102.903 11.2856 102.974 11.0603C103.044 10.8349 103.171 10.6433 103.348 10.4884C103.528 10.3334 103.741 10.2095 103.989 10.1137C104.239 10.0179 104.507 9.97002 104.791 9.97002C105.122 9.97002 105.452 10.0404 105.772 10.1841C106.093 10.3278 106.349 10.5419 106.54 10.8264C106.684 11.0884 106.759 11.3758 106.774 11.6829C106.785 11.9928 106.79 12.2914 106.79 12.5759C106.79 12.8154 106.796 13.2492 106.807 13.8803C106.819 14.5113 106.83 15.2325 106.844 16.0439C106.855 16.8552 106.861 17.7116 106.861 18.616C106.861 19.5203 106.866 20.3795 106.878 21.188C106.889 21.9994 106.894 22.7206 106.894 23.3516V24.656C107.702 24.5377 108.5 24.4194 109.285 24.2982C110.07 24.1799 110.855 24.0728 111.639 23.9771C111.758 23.9545 111.971 23.9489 112.281 23.9602C112.59 23.9714 112.804 23.9911 112.922 24.0137C112.944 23.7517 112.964 23.3178 112.975 22.7093C112.987 22.1008 113.006 21.4106 113.029 20.6359C113.051 19.8612 113.071 19.0385 113.082 18.1708C113.094 17.3003 113.099 16.4805 113.099 15.7058V13.6324C113.099 13.0238 113.088 12.59 113.063 12.328C112.849 12.1392 112.722 11.9167 112.689 11.666C112.652 11.4152 112.683 11.1786 112.779 10.9504C112.874 10.725 113.029 10.5222 113.243 10.3419C113.456 10.1616 113.707 10.063 113.991 10.0376C114.061 10.0376 114.134 10.032 114.205 10.0207C114.275 10.0095 114.348 10.0038 114.418 10.0038C114.702 10.0038 115.001 10.063 115.31 10.1813C115.929 10.4208 116.314 10.8236 116.469 11.3955C116.623 11.9674 116.713 12.5393 116.736 13.1112C116.784 14.0887 116.806 15.0522 116.806 16.0072V18.9033C116.758 21.8106 116.688 24.7011 116.592 27.5718C116.497 30.4425 116.331 33.3217 116.092 36.2036C116.044 36.6319 115.836 36.9586 115.467 37.1868C115.099 37.4122 114.711 37.5249 114.309 37.5249H114.317Z" fill="#0A0203"/>
<path d="M133.409 34.2006C133.266 34.5359 133.035 34.7894 132.715 34.9697C132.394 35.15 132.042 35.2373 131.663 35.2373C131.235 35.2373 130.895 35.1669 130.644 35.0232C130.394 34.8796 130.197 34.6908 130.057 34.4514C129.913 34.2147 129.812 33.933 129.753 33.6118C129.694 33.2907 129.64 32.9639 129.593 32.6286C129.497 31.8652 129.407 31.0933 129.325 30.3045C129.241 29.5185 129.176 28.7325 129.128 27.9465C128.915 28.4 128.653 28.9522 128.344 29.6086C128.034 30.265 127.683 30.9017 127.292 31.5215C126.898 32.1413 126.47 32.7075 126.006 33.2202C125.542 33.733 125.047 34.0851 124.524 34.2739C124.237 34.3697 123.905 34.4175 123.526 34.4175C122.645 34.4175 121.979 34.1612 121.529 33.6485C121.076 33.1357 120.73 32.499 120.494 31.7356C120.232 30.6876 120.077 29.6199 120.03 28.5353C119.982 27.4506 119.959 26.3717 119.959 25.3011C119.959 25.087 119.965 24.7405 119.976 24.2644C119.987 23.7883 119.999 23.2446 120.013 22.6389C120.024 22.0304 120.044 21.3993 120.066 20.7457C120.089 20.0893 120.114 19.4583 120.136 18.8498C120.159 18.2413 120.19 17.7004 120.226 17.2243C120.263 16.7482 120.302 16.4016 120.35 16.1875C120.398 15.996 120.488 15.8298 120.617 15.6861C120.747 15.5424 120.885 15.4128 121.028 15.2917C121.36 15.0776 121.742 14.9705 122.17 14.9705C122.479 14.9705 122.769 15.024 123.045 15.1311C123.318 15.2382 123.551 15.4128 123.739 15.6495C123.931 15.841 124.06 16.0664 124.133 16.3284C124.204 16.5904 124.251 16.8524 124.277 17.1144C124.299 17.5426 124.17 17.8891 123.883 18.1511C123.835 19.5344 123.787 20.9148 123.739 22.298C123.692 23.6813 123.692 25.0617 123.739 26.4449C123.739 27.6112 123.81 28.7691 123.953 29.9129C124.977 28.2451 125.832 26.4872 126.521 24.6419C127.21 22.7967 127.759 20.9063 128.164 18.9766C128.282 18.4272 128.515 18.0356 128.858 17.7962C129.204 17.5595 129.649 17.4384 130.197 17.4384C130.602 17.4384 130.982 17.5454 131.339 17.7595C131.696 17.9736 131.958 18.2835 132.124 18.6892C132.172 18.8329 132.231 19.0892 132.304 19.4583C132.374 19.8273 132.433 20.2274 132.481 20.6556C132.529 21.0838 132.577 21.4839 132.625 21.8529C132.672 22.222 132.695 22.4783 132.695 22.622C132.743 22.9798 132.813 23.6418 132.909 24.6053C133.004 25.5716 133.091 26.6027 133.176 27.6957C133.26 28.7916 133.336 29.8171 133.406 30.7693C133.477 31.7215 133.502 32.3779 133.477 32.7357V33.4682C133.477 33.6231 133.471 33.7724 133.46 33.9161C133.449 34.0598 133.429 34.1555 133.406 34.2006H133.409Z" fill="#0A0203"/>
<path d="M140.725 36.4882C139.988 36.4882 139.333 36.26 138.762 35.8092C138.618 35.7134 138.495 35.6008 138.388 35.4712C138.281 35.3388 138.168 35.2035 138.05 35.0599C137.145 34.7021 136.621 34.0485 136.481 33.0935C136.385 32.4511 136.337 31.8004 136.337 31.1468C136.337 30.4932 136.349 29.8312 136.374 29.1635C135.969 28.9973 135.659 28.7296 135.446 28.3578C135.232 27.9887 135.232 27.6028 135.446 27.1971C135.637 26.9097 135.814 26.6196 135.98 26.3209C136.146 26.0223 136.326 25.7322 136.515 25.4448C136.585 23.777 136.664 22.1205 136.748 20.4753C136.83 18.8301 136.956 17.1764 137.122 15.5058C137.122 15.41 137.139 15.2494 137.175 15.024C137.212 14.7987 137.246 14.5536 137.282 14.2916C137.319 14.0296 137.341 13.7845 137.353 13.5591C137.364 13.3337 137.37 13.1731 137.37 13.0774C137.322 12.6013 137.476 12.2209 137.834 11.9336C138.191 11.649 138.596 11.5054 139.046 11.5054C139.403 11.5054 139.772 11.6124 140.151 11.8265C140.531 12.0406 140.781 12.3139 140.899 12.6491C140.947 12.7928 140.97 13.0295 140.97 13.3647C140.97 13.7 140.964 14.0493 140.953 14.4183C140.942 14.7874 140.916 15.1452 140.883 15.4917C140.846 15.8382 140.829 16.0805 140.829 16.2242C140.711 18.0103 140.638 19.7738 140.615 21.5148C141.304 21.1345 142.036 20.8246 142.809 20.5852C143.583 20.3485 144.373 20.2274 145.183 20.2274C145.993 20.2274 146.71 20.3654 147.343 20.6387C147.973 20.912 148.502 21.2951 148.932 21.7825C149.36 22.2698 149.686 22.8445 149.914 23.4981C150.139 24.1545 150.266 24.8616 150.288 25.6251C150.336 26.3886 150.271 27.1436 150.091 27.8958C149.911 28.6451 149.644 29.3438 149.29 29.9861C148.932 30.6284 148.437 31.3327 147.807 32.0934C147.177 32.8568 146.474 33.5639 145.701 34.2203C144.927 34.8767 144.114 35.4176 143.256 35.8458C142.401 36.2741 141.555 36.4882 140.722 36.4882H140.725ZM140.725 32.2708C140.961 32.6286 141.082 32.9864 141.082 33.3442C141.51 33.1301 141.957 32.8371 142.421 32.468C142.885 32.099 143.332 31.6933 143.76 31.2538C144.187 30.8144 144.581 30.3552 144.938 29.879C145.296 29.4029 145.58 28.9747 145.793 28.5916C146.151 27.9014 146.376 27.1379 146.471 26.304C146.567 25.4702 146.46 24.7067 146.151 24.0165C146.08 23.7798 145.948 23.5629 145.757 23.3742C145.639 23.2784 145.447 23.2305 145.186 23.2305C144.806 23.2305 144.401 23.3009 143.974 23.4446C143.546 23.5883 143.121 23.7714 142.708 23.9996C142.292 24.2278 141.912 24.4757 141.566 24.749C141.22 25.0222 140.93 25.3039 140.691 25.5885C140.669 25.611 140.632 25.642 140.584 25.6786C140.537 25.7153 140.514 25.7575 140.514 25.8026C140.492 26.8506 140.472 27.8929 140.461 28.9297C140.449 29.9664 140.466 31.0087 140.514 32.0567C140.514 32.0793 140.545 32.1159 140.604 32.1638C140.663 32.2117 140.705 32.2483 140.728 32.2708H140.725Z" fill="#0A0203"/>
<path d="M165.597 36.167C165.383 36.2374 165.144 36.2741 164.883 36.2741C163.718 36.2741 163.004 35.6768 162.742 34.488C162.672 34.1302 162.624 33.7724 162.599 33.4146C162.574 33.0568 162.551 32.6878 162.529 32.3075C162.433 31.02 162.374 29.7466 162.351 28.4845C162.329 27.2224 162.304 25.9463 162.281 24.6588C161.876 24.4672 161.572 24.1883 161.37 23.8193C161.167 23.4502 161.173 23.0756 161.387 22.6924C161.553 22.3825 161.825 22.1459 162.208 21.9769C162.185 20.5711 162.16 19.1822 162.138 17.8131C162.115 16.4439 162.101 15.055 162.101 13.6493C161.744 13.6014 161.392 13.4661 161.049 13.2379C160.703 13.0126 160.472 12.7337 160.354 12.3984C160.188 11.9223 160.284 11.511 160.641 11.1645C160.998 10.818 161.426 10.6236 161.927 10.5757C162.07 10.5757 162.205 10.5391 162.337 10.4687C162.467 10.3982 162.593 10.3024 162.711 10.1841C162.9 9.99255 163.139 9.86859 163.426 9.80943C163.71 9.75027 163.985 9.73337 164.247 9.75591C164.936 9.5418 165.682 9.33333 166.477 9.13049C167.273 8.92765 168.083 8.74454 168.905 8.57551C169.726 8.40929 170.539 8.27125 171.349 8.1642C172.156 8.05714 172.93 8.00362 173.669 8.00362C173.906 8.00362 174.164 8.01489 174.437 8.04024C174.71 8.06278 174.966 8.11912 175.205 8.20082C175.441 8.28534 175.658 8.40366 175.846 8.5586C176.038 8.71355 176.178 8.93329 176.274 9.22064C176.417 9.62631 176.381 10.001 176.167 10.3475C175.953 10.694 175.655 10.925 175.275 11.0434C174.443 11.2828 173.593 11.4378 172.724 11.5082C171.855 11.5786 170.995 11.6744 170.137 11.7927C169.422 11.9111 168.708 12.0322 167.996 12.1505C167.282 12.2688 166.582 12.4125 165.89 12.5787C165.867 12.6013 165.853 12.6492 165.853 12.7224V14.1873C165.853 14.9254 165.859 15.7058 165.87 16.5284C165.881 17.351 165.892 18.1314 165.907 18.8695C165.918 19.6076 165.923 20.0978 165.923 20.3344C166.185 20.2386 166.57 20.1034 167.082 19.9231C167.594 19.7428 168.134 19.571 168.705 19.4048C169.276 19.2385 169.83 19.0949 170.365 18.9766C170.899 18.8582 171.298 18.8216 171.56 18.8695C171.822 18.9174 172.094 18.9935 172.381 19.1005C172.668 19.2076 172.893 19.3822 173.059 19.6189C173.155 19.7372 173.236 19.864 173.309 19.9936C173.38 20.126 173.428 20.2612 173.453 20.4049C173.453 20.5964 173.422 20.7993 173.363 21.0134C173.304 21.2275 173.202 21.3937 173.059 21.5148C172.868 21.7064 172.671 21.8726 172.471 22.0163C172.269 22.16 172.049 22.267 171.81 22.3375C170.834 22.5995 169.858 22.8502 168.885 23.0868C167.909 23.3263 166.958 23.6221 166.03 23.9799C166.03 24.2898 166.042 24.9039 166.067 25.8195C166.089 26.7379 166.115 27.7211 166.137 28.7691C166.16 29.8171 166.191 30.8003 166.227 31.7187C166.264 32.6371 166.292 33.2512 166.317 33.5583C166.317 33.6062 166.365 33.6766 166.461 33.7724C166.556 33.8682 166.615 33.9386 166.638 33.9865C166.756 34.2006 166.818 34.4147 166.818 34.6288C166.818 34.8429 166.764 35.0514 166.657 35.2542C166.551 35.4571 166.407 35.6402 166.23 35.8092C166.05 35.9754 165.842 36.0938 165.606 36.167H165.597Z" fill="#0A0203"/>
<path d="M180.577 36.0938C179.863 36.0938 179.239 35.9698 178.704 35.7191C178.17 35.4684 177.706 35.1303 177.312 34.6993C176.918 34.2711 176.592 33.7696 176.33 33.1977C176.069 32.6258 175.866 32.0314 175.723 31.4116C175.461 30.4115 175.295 29.3973 175.222 28.3747C175.152 27.3492 175.138 26.3266 175.186 25.3011C175.233 24.7292 175.335 24.0869 175.489 23.3714C175.644 22.6558 175.869 21.9656 176.167 21.2979C176.465 20.6302 176.828 20.0105 177.256 19.4386C177.683 18.8667 178.184 18.4385 178.755 18.1511C178.803 18.1286 178.909 18.0497 179.075 17.9201C179.241 17.7905 179.348 17.7004 179.396 17.6525C179.824 17.3679 180.293 17.1228 180.805 16.92C181.317 16.7172 181.835 16.6158 182.358 16.6158C183.142 16.6158 183.851 16.8073 184.481 17.1876C185.111 17.568 185.665 18.0694 186.141 18.6892C186.616 19.309 187.004 19.9992 187.3 20.7626C187.598 21.5261 187.792 22.3008 187.887 23.0868C188.053 24.4222 188.025 25.7547 187.797 27.09C187.57 28.4254 187.184 29.6988 186.639 30.913C186.377 31.5327 186.056 32.1525 185.677 32.7723C185.297 33.3921 184.85 33.9471 184.338 34.4344C183.826 34.9218 183.255 35.3219 182.625 35.6318C181.995 35.9416 181.311 36.0966 180.572 36.0966L180.577 36.0938ZM180.434 32.9498C181.005 32.7357 181.522 32.2878 181.987 31.6088C182.451 30.9299 182.85 30.1664 183.182 29.3213C183.514 28.4761 183.775 27.6169 183.967 26.7464C184.155 25.8758 184.251 25.1434 184.251 24.5489C184.251 23.8587 184.166 23.1742 184 22.4952C183.834 21.8163 183.559 21.1909 183.179 20.619C182.774 20.881 182.369 21.0134 181.967 21.0134C181.657 21.0134 181.337 20.9429 181.002 20.7993C180.859 20.9176 180.715 21.05 180.575 21.1937C180.431 21.3374 180.276 21.481 180.11 21.6219C180.063 21.6698 179.998 21.7712 179.914 21.9261C179.829 22.0811 179.753 22.2417 179.683 22.4079C179.613 22.5741 179.545 22.7431 179.486 22.9093C179.427 23.0756 179.385 23.1967 179.362 23.2671C179.171 23.9827 179.053 24.7208 179.005 25.4843C178.957 26.2477 178.957 27.0083 179.005 27.7718C179.028 28.1071 179.07 28.5184 179.129 29.0057C179.188 29.4931 179.278 29.9833 179.396 30.4707C179.514 30.958 179.658 31.4313 179.824 31.8821C179.99 32.3356 180.192 32.6934 180.431 32.9554L180.434 32.9498Z" fill="#0A0203"/>
<path d="M195.107 34.4147C194.868 34.6767 194.601 34.8739 194.303 35.0035C194.005 35.1359 193.701 35.2007 193.392 35.2007C192.964 35.2007 192.565 35.0937 192.196 34.8796C191.828 34.6654 191.547 34.3302 191.358 33.8795C191.288 33.6879 191.209 33.3611 191.128 32.8963C191.043 32.4314 190.973 31.9384 190.914 31.4144C190.855 30.8904 190.801 30.389 190.753 29.9129C190.706 29.4368 190.669 29.1015 190.647 28.9128C190.624 28.7212 190.579 28.3409 190.523 27.769C190.464 27.1971 190.405 26.5829 190.343 25.9294C190.284 25.2758 190.225 24.6616 190.163 24.0897C190.104 23.5178 190.062 23.1375 190.039 22.946C190.017 22.7797 189.986 22.529 189.949 22.1966C189.913 21.8642 189.884 21.5176 189.859 21.1599C189.837 20.8021 189.823 20.464 189.823 20.14C189.823 19.8161 189.859 19.5851 189.929 19.4414C190.073 19.109 190.309 18.847 190.644 18.6554C190.976 18.4638 191.333 18.368 191.715 18.368C192.12 18.368 192.478 18.4751 192.787 18.6892C192.93 18.785 193.071 18.9174 193.215 19.0836C193.358 19.2498 193.482 19.4301 193.589 19.6189C193.696 19.8104 193.769 20.0076 193.802 20.2077C193.839 20.4105 193.833 20.5964 193.786 20.7626C193.786 20.788 193.769 20.8218 193.732 20.8697C193.696 20.9176 193.69 20.9542 193.715 20.9767C193.715 21.0472 193.732 21.1852 193.769 21.3881C193.805 21.5909 193.833 21.805 193.859 22.0304C193.881 22.2586 193.912 22.4727 193.949 22.6727C193.985 22.8755 194.002 23.0108 194.002 23.084C194.334 22.3684 194.739 21.5881 195.217 20.7429C195.692 19.8978 196.216 19.1991 196.787 18.6526C197.121 18.3906 197.512 18.1934 197.965 18.0638C198.418 17.9342 198.845 17.9145 199.25 18.0103C199.537 18.0807 199.81 18.2018 200.072 18.368C200.333 18.5342 200.547 18.7258 200.713 18.9399C200.879 19.154 200.975 19.3879 201 19.6358C201.022 19.8865 200.963 20.1429 200.82 20.4049C200.724 20.5711 200.601 20.7147 200.446 20.8331C200.291 20.9514 200.12 21.0472 199.928 21.1176C199.906 21.1401 199.858 21.1542 199.785 21.1542C199.712 21.1542 199.667 21.1768 199.641 21.2247C198.905 22.2248 198.308 23.1854 197.858 24.101C197.405 25.0194 197.037 25.9406 196.753 26.8703C196.466 27.8 196.241 28.7634 196.075 29.7664C195.909 30.7665 195.74 31.8511 195.574 33.0202C195.527 33.2597 195.479 33.5019 195.431 33.7527C195.383 34.0034 195.276 34.2232 195.11 34.4147H195.107Z" fill="#0A0203"/>
<path d="M102.42 74.5793C101.986 74.5793 101.581 74.4779 101.204 74.2751C100.825 74.0722 100.544 73.7821 100.355 73.4046C100.274 73.2158 100.234 72.9989 100.234 72.7566C100.234 72.5143 100.302 72.3115 100.437 72.1481C100.572 71.9312 100.673 71.6889 100.74 71.4184C100.808 71.148 100.881 70.8775 100.963 70.6071C101.204 69.8493 101.475 69.1055 101.773 68.3759C101.91 68.0406 102.045 67.7026 102.183 67.3673C102.344 66.9729 103.027 65.3361 103.027 65.3361C104.402 61.9837 105.741 58.651 107.035 55.3408C108.332 52.0278 109.533 48.6556 110.638 45.2214C110.72 45.0045 110.801 44.7904 110.88 44.5735C110.962 44.3566 111.082 44.1678 111.246 44.0044C111.462 43.734 111.724 43.5368 112.036 43.4156C112.345 43.2945 112.663 43.2325 112.987 43.2325C113.392 43.2325 113.769 43.3198 114.12 43.4973C114.472 43.6748 114.753 43.9509 114.97 44.3284C115.051 44.4355 115.124 44.6327 115.192 44.9172C115.259 45.2017 115.318 45.506 115.375 45.83C115.428 46.1539 115.476 46.4582 115.515 46.7427C115.555 47.0273 115.577 47.2357 115.577 47.371C115.794 49.2641 116.007 51.1488 116.224 53.0279C116.441 54.9069 116.668 56.7804 116.913 58.6453C117.29 58.6453 117.628 58.7327 117.926 58.9101C118.224 59.0848 118.466 59.3017 118.654 59.5581C118.843 59.8145 118.938 60.099 118.938 60.4089C118.938 60.7188 118.817 61.0118 118.573 61.2822C118.438 61.4456 118.263 61.5808 118.047 61.6879C117.83 61.7949 117.613 61.8907 117.4 61.9724C117.616 63.5134 117.858 65.0488 118.128 66.5757C118.398 68.1026 118.696 69.638 119.02 71.179C119.073 71.3142 119.101 71.4551 119.101 71.6044V72.072C119.127 72.4242 118.98 72.7425 118.657 73.0242C118.333 73.306 117.982 73.4778 117.605 73.5313C117.228 73.613 116.829 73.5933 116.41 73.4694C115.991 73.3482 115.647 73.1369 115.377 72.8411C115.242 72.7059 115.141 72.5425 115.074 72.3537C115.006 72.165 114.944 71.9762 114.891 71.7847C114.809 71.4861 114.694 70.948 114.548 70.162C114.399 69.3788 114.25 68.5393 114.103 67.6462C113.954 66.7532 113.828 65.9165 113.718 65.1305C113.611 64.3473 113.53 63.8064 113.476 63.5078C111.451 64.3727 109.454 65.3869 107.485 66.5504C107.457 66.8208 107.364 67.0715 107.201 67.2997C107.038 67.5307 106.849 67.6998 106.633 67.8068C106.579 67.835 106.518 67.8603 106.45 67.8885C106.383 67.9167 106.335 67.942 106.309 67.9702C106.011 68.6999 105.722 69.438 105.438 70.1817C105.153 70.9254 104.903 71.6748 104.689 72.4326C104.501 73.0552 104.251 73.568 103.941 73.9736C103.632 74.3793 103.126 74.5821 102.422 74.5821L102.42 74.5793ZM112.177 53.411C111.662 54.8168 111.136 56.2028 110.599 57.5663C110.059 58.9327 109.505 60.3047 108.939 61.6823C109.586 61.3583 110.247 61.0484 110.922 60.7498C111.597 60.4511 112.286 60.1553 112.987 59.8567C112.852 58.7749 112.717 57.7016 112.582 56.6339C112.447 55.5661 112.312 54.49 112.177 53.411Z" fill="#0A0203"/>
<path d="M136.928 71.1733C136.765 71.5509 136.503 71.8438 136.138 72.0439C135.772 72.2467 135.375 72.3481 134.942 72.3481C134.456 72.3481 134.07 72.2664 133.789 72.1058C133.505 71.9424 133.283 71.7283 133.122 71.4579C132.959 71.1874 132.844 70.8691 132.779 70.5057C132.712 70.1394 132.65 69.7704 132.596 69.3901C132.49 68.5252 132.388 67.6462 132.293 66.7532C132.197 65.8601 132.124 64.9699 132.07 64.0769C131.829 64.5924 131.53 65.2206 131.179 65.9616C130.827 66.7053 130.431 67.4293 129.983 68.1308C129.539 68.8351 129.053 69.4774 128.527 70.0577C128.001 70.6381 127.441 71.0381 126.847 71.255C126.524 71.3621 126.144 71.4184 125.714 71.4184C124.715 71.4184 123.959 71.1283 123.447 70.5451C122.935 69.9648 122.541 69.2408 122.274 68.3759C121.976 67.187 121.802 65.9756 121.748 64.7474C121.695 63.5191 121.667 62.2936 121.667 61.0766C121.667 60.8343 121.672 60.4427 121.686 59.9018C121.7 59.3609 121.712 58.7467 121.726 58.0565C121.74 57.3663 121.759 56.6508 121.787 55.907C121.813 55.1633 121.841 54.4477 121.869 53.7575C121.894 53.0673 121.931 52.4532 121.97 51.9123C122.01 51.3714 122.057 50.9798 122.111 50.7375C122.164 50.5206 122.266 50.3318 122.415 50.1684C122.564 50.005 122.718 49.8585 122.882 49.7233C123.258 49.481 123.692 49.3571 124.178 49.3571C124.53 49.3571 124.859 49.4191 125.171 49.5402C125.48 49.6613 125.745 49.8585 125.961 50.129C126.178 50.3459 126.327 50.6023 126.406 50.9009C126.487 51.1995 126.541 51.4953 126.569 51.7939C126.594 52.2813 126.448 52.6729 126.125 52.9687C126.071 54.5379 126.018 56.1042 125.961 57.6734C125.908 59.2426 125.908 60.8089 125.961 62.3781C125.961 63.7022 126.043 65.015 126.203 66.3109C127.365 64.4177 128.335 62.426 129.117 60.33C129.899 58.234 130.521 56.093 130.979 53.9012C131.114 53.2786 131.376 52.8335 131.77 52.563C132.16 52.2926 132.667 52.1574 133.288 52.1574C133.747 52.1574 134.18 52.2785 134.585 52.5236C134.99 52.7659 135.285 53.118 135.477 53.5772C135.53 53.7406 135.598 54.0308 135.679 54.4505C135.761 54.8703 135.828 55.3211 135.882 55.8084C135.935 56.2958 135.988 56.7494 136.045 57.1663C136.098 57.5861 136.126 57.8762 136.126 58.0396C136.18 58.4453 136.261 59.1947 136.368 60.2906C136.475 61.3864 136.576 62.5556 136.672 63.798C136.765 65.0432 136.855 66.2038 136.936 67.2856C137.018 68.3674 137.043 69.1112 137.018 69.5168V70.3479C137.018 70.5254 137.012 70.6916 136.998 70.855C136.984 71.0184 136.964 71.1255 136.936 71.179L136.928 71.1733Z" fill="#0A0203"/>
<path d="M147.846 74.8244C147.683 75.2301 147.422 75.5259 147.056 75.7175C146.69 75.9062 146.308 76.002 145.903 76.002C145.444 76.002 144.997 75.8809 144.567 75.6358C144.134 75.3935 143.852 75.0413 143.717 74.5821C143.582 74.1483 143.476 73.5144 143.394 72.6749C143.312 71.8382 143.265 70.8832 143.253 69.8155C143.239 68.7478 143.234 67.6321 143.234 66.4686C143.234 65.3052 143.253 64.198 143.296 63.1444C143.335 62.0907 143.369 61.1301 143.397 60.2652C143.422 59.4003 143.45 58.7524 143.478 58.3185C143.478 58.265 143.464 58.2566 143.439 58.2988C143.411 58.3411 143.372 58.3861 143.318 58.4397C142.885 58.8735 142.373 59.0876 141.78 59.0876C141.268 59.0876 140.714 58.9862 140.12 58.7834C139.527 58.5805 139.093 58.3298 138.823 58.034C138.582 57.7382 138.444 57.4001 138.418 57.0198C138.39 56.6423 138.514 56.3183 138.784 56.0479C139.054 55.7774 139.392 55.5746 139.797 55.4394C139.932 55.3858 140.182 55.3126 140.545 55.2168C140.91 55.121 141.301 55.0281 141.718 54.9323C142.137 54.8393 142.528 54.7435 142.893 54.6477C143.259 54.5548 143.507 54.4928 143.642 54.4646C143.642 54.2223 143.647 53.8167 143.661 53.2476C143.675 52.6785 143.701 52.0926 143.743 51.484C143.782 50.8755 143.836 50.3008 143.906 49.7599C143.973 49.219 144.061 48.8415 144.17 48.6246C144.333 48.3006 144.589 48.0358 144.938 47.833C145.29 47.6301 145.653 47.5287 146.032 47.5287C146.463 47.5569 146.89 47.6583 147.306 47.833C147.725 48.0105 148.069 48.2584 148.339 48.5823C148.637 48.9063 148.763 49.2866 148.724 49.7177C148.685 50.1515 148.474 50.4896 148.097 50.7319C148.043 51.1911 148.015 51.6446 148.015 52.0897C148.015 52.5349 148.001 52.9884 147.976 53.4476C148.274 53.3941 148.569 53.3321 148.867 53.2645C149.166 53.1969 149.461 53.1236 149.759 53.0419C150.271 52.9067 150.797 52.9546 151.337 53.1828C151.877 53.4138 152.229 53.7857 152.389 54.2984C152.552 54.7041 152.515 55.0957 152.288 55.4732C152.057 55.8507 151.714 56.1099 151.255 56.2451C151.148 56.2733 150.932 56.3268 150.608 56.4085C150.285 56.4902 149.933 56.5775 149.557 56.6733C149.177 56.7691 148.828 56.8564 148.505 56.9381C148.181 57.0198 147.965 57.0733 147.858 57.1015C147.695 62.6993 147.695 68.3083 147.858 73.9314C147.858 74.0666 147.872 74.2159 147.897 74.3765C147.922 74.5399 147.911 74.6864 147.858 74.8216L147.846 74.8244Z" fill="#0A0203"/>
<path d="M156.974 50.9375C156.867 50.9657 156.771 50.9854 156.689 50.9995C156.608 51.0136 156.512 51.0192 156.405 51.0192C156.054 51.0192 155.716 50.9375 155.393 50.7769C154.906 50.56 154.535 50.2219 154.279 49.7627C154.023 49.3035 154.043 48.8443 154.341 48.3851C154.476 48.1964 154.664 48.0133 154.909 47.8386C155.151 47.6639 155.421 47.5146 155.719 47.3935C156.017 47.2723 156.313 47.1709 156.611 47.0892C156.909 47.0075 157.179 46.9681 157.421 46.9681C157.772 46.9681 158.144 47.0695 158.535 47.2724C158.926 47.4752 159.201 47.7259 159.364 48.0217C159.581 48.3203 159.648 48.664 159.567 49.0556C159.485 49.4472 159.297 49.7515 158.999 49.9684C158.675 50.1853 158.352 50.3797 158.025 50.5572C157.702 50.7347 157.35 50.8614 156.974 50.9431V50.9375ZM159.969 72.5115C159.916 72.9707 159.679 73.3369 159.26 73.6074C158.841 73.8778 158.402 74.0131 157.944 74.0131C157.567 74.0131 157.187 73.9257 156.81 73.7483C156.434 73.5736 156.164 73.3229 156 72.9989C155.407 71.9453 155.041 70.7818 154.906 69.5112C154.825 68.4576 154.777 67.4011 154.766 66.3475C154.752 65.2939 154.732 64.2374 154.704 63.1838C154.704 60.4258 154.746 57.6678 154.825 54.9097V54.2815C154.825 54.0787 154.878 53.8956 154.988 53.735C155.176 53.4364 155.427 53.2082 155.736 53.0448C156.045 52.8814 156.389 52.8025 156.768 52.8025C157.199 52.8025 157.612 52.9095 158.003 53.1265C158.394 53.3434 158.656 53.6533 158.793 54.0589C158.819 54.1406 158.847 54.2618 158.875 54.4252C158.9 54.5886 158.923 54.7632 158.937 54.952C158.951 55.1407 158.956 55.3182 158.956 55.4788V55.845C158.956 55.8732 158.951 55.9408 158.937 56.0479C158.923 56.1549 158.917 56.2254 158.917 56.2507C158.917 56.6282 158.923 57.2114 158.937 57.9946C158.951 58.7777 158.962 59.6651 158.976 60.6512C158.99 61.6372 159.01 62.6795 159.038 63.7726C159.063 64.8685 159.106 65.908 159.159 66.894C159.212 67.8801 159.274 68.7675 159.342 69.5506C159.409 70.3338 159.497 70.9029 159.606 71.255C159.66 71.472 159.741 71.6804 159.848 71.8833C159.955 72.0861 159.997 72.2946 159.969 72.5115Z" fill="#0A0203"/>
<path d="M165.42 73.9314C164.905 73.9314 164.34 73.8581 163.718 73.7088C163.097 73.5595 162.624 73.2975 162.301 72.9172C162.137 72.7284 162.022 72.5059 161.957 72.2467C161.89 71.9903 161.882 71.7537 161.938 71.5368C162.101 71.0494 162.438 70.7057 162.95 70.5029C163.462 70.3 163.963 70.2662 164.449 70.4014C164.503 70.4014 164.624 70.4296 164.815 70.4831C165.004 70.5367 165.125 70.5648 165.181 70.5648C165.476 70.5648 165.856 70.469 166.314 70.2803C166.773 70.0915 167.226 69.8605 167.67 69.5901C168.114 69.3196 168.505 69.021 168.843 68.697C169.18 68.3731 169.363 68.0744 169.388 67.804C169.442 67.6406 169.383 67.4265 169.206 67.156C169.028 66.8856 168.874 66.6828 168.739 66.5475C167.957 65.6545 167.124 64.8037 166.25 63.9923C165.372 63.181 164.624 62.2626 164.002 61.2343C163.651 60.6399 163.409 59.9638 163.274 59.2059C163.032 57.7466 163.206 56.3127 163.8 54.9069C164.042 54.3942 164.312 53.8786 164.61 53.3659C164.905 52.8532 165.243 52.394 165.622 51.9883C165.999 51.5826 166.432 51.253 166.919 50.9938C167.406 50.7375 167.957 50.6079 168.578 50.6079C169.065 50.6079 169.523 50.6896 169.954 50.8502C170.384 51.0136 170.75 51.2558 171.048 51.5798C171.101 51.6333 171.169 51.7432 171.25 51.9038C171.332 52.0672 171.414 52.2362 171.492 52.4109C171.574 52.5856 171.641 52.763 171.695 52.9377C171.748 53.1152 171.79 53.242 171.816 53.3237C171.897 53.6223 171.85 53.9181 171.675 54.2167C171.501 54.5153 171.265 54.7323 170.966 54.8647C170.589 55.0534 170.21 55.1492 169.833 55.1492C169.481 55.1492 169.144 55.0675 168.82 54.9069C168.55 55.3661 168.328 55.8591 168.151 56.3859C167.974 56.9128 167.887 57.448 167.887 57.9889C167.887 58.558 168.007 59.1102 168.252 59.6511C168.739 60.5159 169.346 61.3076 170.075 62.0231C170.803 62.7387 171.492 63.4909 172.139 64.2741C172.516 64.7079 172.868 65.1727 173.191 65.6742C173.515 66.1757 173.703 66.7081 173.759 67.2772C173.841 68.0885 173.664 68.8858 173.233 69.669C172.91 70.238 172.437 70.7789 171.816 71.2917C171.194 71.8044 170.514 72.258 169.771 72.6496C169.028 73.0411 168.272 73.351 167.504 73.582C166.733 73.8102 166.039 73.9257 165.42 73.9257V73.9314Z" fill="#0A0203"/>
<path d="M178.901 72.4721C178.198 72.4721 177.632 72.2692 177.199 71.8636C176.766 71.4579 176.429 70.9508 176.187 70.3423C175.945 69.7338 175.782 69.0915 175.7 68.4153C175.619 67.7392 175.579 67.1307 175.579 66.5898C175.526 64.3191 175.545 62.0626 175.641 59.8173C175.737 57.5748 175.891 55.3154 176.108 53.0448C176.133 52.6673 176.175 52.301 176.229 51.9489C176.282 51.5967 176.384 51.2953 176.533 51.0361C176.682 50.7798 176.898 50.5685 177.18 50.4079C177.464 50.2445 177.849 50.1656 178.333 50.1656C178.817 50.1656 179.278 50.2952 179.708 50.5516C180.138 50.8079 180.437 51.1798 180.6 51.6672C180.653 51.7489 180.681 51.8559 180.681 51.9911C180.681 52.1264 180.707 52.1658 180.763 52.1123C181.356 51.5179 182.037 50.977 182.808 50.4896C183.578 50.0022 184.394 49.7599 185.258 49.7599C186.121 49.7599 186.768 49.9346 187.283 50.2867C187.795 50.6389 188.208 51.084 188.517 51.6249C188.827 52.1658 189.043 52.78 189.164 53.4702C189.285 54.1604 189.361 54.8562 189.386 55.5577C189.927 54.7464 190.514 53.9547 191.147 53.1856C191.78 52.4165 192.531 51.7855 193.395 51.3009C194.148 50.8699 194.933 50.6671 195.743 50.6924C196.607 50.7741 197.287 51.0305 197.788 51.4643C198.286 51.8982 198.671 52.4306 198.941 53.0673C199.211 53.704 199.385 54.3857 199.467 55.1154C199.549 55.8451 199.602 56.5606 199.63 57.2649C199.684 59.2933 199.63 61.3132 199.467 63.3275C199.304 65.3418 199.101 67.3617 198.859 69.3901C198.831 69.607 198.798 69.8239 198.758 70.038C198.719 70.255 198.643 70.4719 198.536 70.686C198.348 71.01 198.083 71.2551 197.746 71.4156C197.408 71.579 197.051 71.6579 196.674 71.6579C196.216 71.6579 195.791 71.5509 195.4 71.3339C195.009 71.117 194.733 70.793 194.57 70.362C194.517 70.3085 194.469 70.1789 194.43 69.9761C194.39 69.7732 194.368 69.6324 194.368 69.5507C194.666 67.6575 194.908 65.7728 195.096 63.8938C195.285 62.0147 195.38 60.13 195.38 58.2368C195.38 57.6424 195.366 57.0536 195.338 56.4733C195.31 55.8929 195.231 55.3182 195.096 54.7492C194.449 55.3718 193.833 56.1155 193.254 56.9804C192.674 57.8453 192.14 58.758 191.653 59.7187C191.167 60.6793 190.728 61.6456 190.337 62.6176C189.946 63.5923 189.6 64.4966 189.305 65.3361C189.277 65.4178 189.229 65.5728 189.164 65.8038C189.097 66.0348 189.024 66.2715 188.942 66.5137C188.861 66.756 188.779 66.987 188.697 67.2039C188.616 67.4209 188.548 67.5702 188.495 67.6491C188.278 67.9477 188.003 68.1646 187.665 68.297C187.328 68.4322 186.982 68.4998 186.633 68.4998C186.011 68.4998 185.471 68.3111 185.013 67.9308C184.554 67.5533 184.366 67.0518 184.445 66.4292C184.689 64.753 184.869 63.0768 184.99 61.4005C185.111 59.7243 185.159 58.034 185.131 56.3324C185.131 55.4394 185.049 54.5745 184.889 53.7378C184.296 54.197 183.761 54.7041 183.289 55.2591C182.816 55.8141 182.377 56.4029 181.972 57.0226C181.891 57.186 181.75 57.4339 181.548 57.772C181.345 58.1101 181.143 58.4679 180.94 58.8454C180.738 59.2229 180.555 59.5891 180.394 59.9412C180.231 60.2934 180.138 60.5497 180.11 60.7131C180.11 60.7948 180.105 60.9695 180.091 61.24C180.077 61.5104 180.063 61.7949 180.049 62.0907C180.034 62.3894 180.029 62.6739 180.029 62.9415V64.7671C180.029 65.3615 180.034 65.9841 180.049 66.6321C180.063 67.28 180.102 67.897 180.169 68.4773C180.237 69.0577 180.324 69.4718 180.434 69.7141C180.487 69.9028 180.569 70.0718 180.676 70.2211C180.783 70.3705 180.839 70.5395 180.839 70.7282C180.839 71.3227 180.65 71.7621 180.271 72.0467C179.891 72.3312 179.433 72.4721 178.895 72.4721H178.901Z" fill="#0A0203"/>
</g>
<defs>
<clipPath id="clip0_20115_761">
<rect width="201" height="84" fill="white"/>
</clipPath>
</defs>
</svg>
