<?xml version="1.0" encoding="UTF-8"?>
<svg xmlns="http://www.w3.org/2000/svg" width="213" height="19" viewBox="0 0 213 19" fill="none">
  <g clip-path="url(#clip0_17592_1438)">
    <path d="M99.4438 16.2899L98.253 15.2114C94.0178 11.3245 91.2317 8.80804 91.2317 5.66251C91.1868 3.19102 93.1527 1.15766 95.6242 1.12396C95.6692 1.12396 95.7141 1.12396 95.7478 1.12396C97.1745 1.12396 98.5226 1.7643 99.4438 2.86523C100.365 1.77553 101.713 1.13519 103.14 1.12396C105.611 1.09026 107.633 3.06745 107.656 5.53893C107.656 5.58387 107.656 5.62881 107.656 5.66251C107.656 8.80804 104.859 11.3245 100.635 15.2114L99.4438 16.2787V16.2899Z" fill="#0095DA"></path>
    <mask id="mask0_17592_1438" style="mask-type:luminance" maskUnits="userSpaceOnUse" x="137" y="0" width="76" height="17">
      <path d="M212.604 0H137.707V16.2893H212.604V0Z" fill="white"></path>
    </mask>
    <g mask="url(#mask0_17592_1438)">
      <path d="M204.043 12.6613C204.549 13.1668 204.549 13.9757 204.043 14.4812C201.673 16.8516 197.831 16.8516 195.46 14.4812C193.09 12.1108 193.09 8.26877 195.46 5.89839C197.831 3.52801 201.673 3.52801 204.043 5.89839C204.549 6.40392 204.549 7.22401 204.043 7.72954L200.673 11.0997C200.167 11.6053 199.359 11.6053 198.853 11.0997C198.348 10.5942 198.348 9.78537 198.853 9.27983L201.145 6.98809C199.381 6.22418 197.325 7.04426 196.573 8.808C195.809 10.5717 196.629 12.6276 198.392 13.3803C199.696 13.942 201.212 13.6499 202.223 12.65C202.729 12.1445 203.538 12.1445 204.043 12.65" fill="white"></path>
      <path d="M209.458 16.2896C207.728 16.2896 206.324 14.8853 206.324 13.1553C206.324 11.4252 207.728 10.021 209.458 10.021C211.188 10.021 212.592 11.4252 212.592 13.1553C212.592 14.8853 211.188 16.2896 209.458 16.2896ZM209.458 11.942C208.795 11.942 208.256 12.4812 208.256 13.1441C208.256 13.8069 208.795 14.3461 209.458 14.3461C210.121 14.3461 210.66 13.8069 210.66 13.1441C210.66 12.4812 210.121 11.942 209.458 11.942Z" fill="white"></path>
      <path d="M143.773 4.13412C142.526 4.13412 141.313 4.51608 140.29 5.23506V0.763914C140.29 0.337021 139.953 0 139.526 0C138.527 0 137.718 0.80885 137.718 1.80868V10.2005C137.718 13.5482 140.436 16.2669 143.784 16.2669C147.132 16.2669 149.851 13.5482 149.851 10.2005C149.851 6.85276 147.132 4.13412 143.784 4.13412M143.784 13.683C141.863 13.683 140.302 12.1215 140.302 10.2005C140.302 8.27948 141.863 6.71795 143.784 6.71795C145.705 6.71795 147.267 8.27948 147.267 10.2005C147.267 12.1215 145.705 13.683 143.784 13.683Z" fill="white"></path>
      <path d="M162.848 5.62883V10.2011C162.713 13.5488 159.882 16.1551 156.535 16.0203C153.378 15.8967 150.85 13.3578 150.715 10.2011V6.14559C150.715 5.14576 151.524 4.33691 152.524 4.33691C152.951 4.33691 153.288 4.68517 153.288 5.10083V10.1898C153.288 12.1109 154.849 13.6724 156.77 13.6724C158.691 13.6724 160.253 12.1109 160.253 10.1898V5.62883C160.253 4.92108 160.826 4.33691 161.545 4.33691C162.264 4.33691 162.837 4.90985 162.837 5.62883" fill="white"></path>
      <path d="M169.948 4.10042C168.701 4.10042 167.488 4.48238 166.466 5.20136V0.763914C166.466 0.337021 166.129 0 165.702 0C164.702 0 163.893 0.80885 163.893 1.80868V10.2005C163.904 13.5482 166.634 16.2556 169.993 16.2332C173.341 16.2219 176.048 13.4921 176.026 10.1331C176.015 6.79659 173.296 4.08919 169.959 4.10042M169.959 13.6493C168.038 13.6493 166.477 12.0878 166.477 10.1668C166.477 8.24578 168.038 6.68425 169.959 6.68425C171.88 6.68425 173.442 8.24578 173.442 10.1668C173.442 12.0878 171.88 13.6493 169.959 13.6493Z" fill="white"></path>
      <path d="M183.002 4.10042C181.755 4.10042 180.542 4.48238 179.519 5.20136V0.763914C179.519 0.337021 179.182 0 178.755 0C177.756 0 176.947 0.80885 176.947 1.80868V10.2342C176.98 13.5819 179.722 16.2781 183.069 16.2444C186.417 16.2107 189.113 13.4696 189.08 10.1219C189.046 6.79659 186.338 4.11166 183.013 4.11166M183.013 13.6606C181.092 13.6606 179.531 12.0991 179.531 10.178C179.531 8.25701 181.092 6.69548 183.013 6.69548C184.934 6.69548 186.496 8.25701 186.496 10.178C186.496 12.0991 184.934 13.6606 183.013 13.6606Z" fill="white"></path>
      <path d="M191.899 0H191.922C192.338 0 192.675 0.337021 192.675 0.763914V14.8963C192.675 15.6041 192.102 16.1882 191.383 16.1882C190.675 16.1882 190.091 15.6153 190.091 14.8963V1.79744C190.091 0.80885 190.9 0 191.888 0" fill="white"></path>
    </g>
  </g>
  <path d="M131.707 5.61719H132.965L129.119 15.4312C128.436 17.1568 127.106 18.3251 125.488 18.1993V17.0849C126.656 17.2107 127.465 16.3839 127.95 15.2155L128.184 14.6583L124.158 5.61719H125.416L128.795 13.1485L131.707 5.61719Z" fill="white"></path>
  <path d="M118.977 5.40117C121.512 5.40117 123.615 7.45026 123.615 10.1105C123.615 12.7707 121.512 14.8198 118.977 14.8198C117.378 14.8198 116.101 14.0469 115.346 12.8426V14.6041H114.16V2.02197H115.346V7.37836C116.101 6.17407 117.378 5.40117 118.977 5.40117ZM118.887 13.6694C120.883 13.6694 122.428 12.1056 122.428 10.1105C122.428 8.11531 120.883 6.55154 118.887 6.55154C116.892 6.55154 115.346 8.11531 115.346 10.1105C115.346 12.1056 116.892 13.6694 118.887 13.6694Z" fill="white"></path>
  <path d="M81.3818 5.40117C83.5747 5.40117 84.9048 6.83912 84.9048 9.08593V14.6041H83.7185V9.08593C83.7185 7.4862 82.8377 6.55154 81.2739 6.55154C79.6922 6.55154 78.3621 7.4862 78.3621 9.89478V14.6041H77.1758V2.02197H78.3621V7.01887C79.0631 5.88648 80.1056 5.40117 81.3818 5.40117Z" fill="white"></path>
  <path d="M75.1986 6.76689H72.6103V12.2131C72.6103 13.7589 73.4551 13.6331 75.1986 13.5612V14.6037C72.772 14.9632 71.4239 14.3701 71.4239 12.2131V6.76689H69.5366V5.61652H71.4239V3.45959L72.6103 3.1001V5.61652H75.1986V6.76689Z" fill="white"></path>
  <path d="M67.3242 3.7109C66.8389 3.7109 66.4614 3.31546 66.4614 2.84812C66.4614 2.38079 66.8389 1.98535 67.3242 1.98535C67.8095 1.98535 68.187 2.38079 68.187 2.84812C68.187 3.31546 67.8095 3.7109 67.3242 3.7109ZM66.731 14.6034V5.61619H67.9174V14.6034H66.731Z" fill="white"></path>
  <path d="M63.7203 5.61719H64.9425L62.1745 14.6044H60.8803L58.5616 7.36071L56.2429 14.6044H54.9487L52.1807 5.61719H53.4029L55.6138 13.0766L57.9684 5.61719H59.1548L61.5094 13.0766L63.7203 5.61719Z" fill="white"></path>
  <path d="M42.0619 5.40088C44.812 5.40088 46.5196 7.68363 46.5196 10.1461C46.5196 10.3259 46.5016 10.5236 46.4837 10.7033H38.5929C38.8445 12.5367 40.2645 13.6691 42.1698 13.6691C43.5898 13.6691 44.5784 13.0041 45.0637 12.1413L46.1062 12.7524C45.3513 13.9747 43.9672 14.8195 42.1518 14.8195C39.3118 14.8195 37.3706 12.8243 37.3706 10.1102C37.3706 7.46794 39.2759 5.40088 42.0619 5.40088ZM42.0619 6.55125C40.1746 6.55125 38.8265 7.79148 38.5929 9.55298H45.2973C45.0457 7.57579 43.6077 6.55125 42.0619 6.55125Z" fill="white"></path>
  <path d="M34.2116 2.02197H35.3979V14.6041H34.2116V12.8426C33.4567 14.0469 32.1805 14.8198 30.5808 14.8198C28.0464 14.8198 25.9434 12.7707 25.9434 10.1105C25.9434 7.45026 28.0464 5.40117 30.5808 5.40117C32.1805 5.40117 33.4567 6.17407 34.2116 7.37836V2.02197ZM30.6706 13.6694C32.6658 13.6694 34.2116 12.1056 34.2116 10.1105C34.2116 8.11531 32.6658 6.55154 30.6706 6.55154C28.6755 6.55154 27.1297 8.11531 27.1297 10.1105C27.1297 12.1056 28.6755 13.6694 30.6706 13.6694Z" fill="white"></path>
  <path d="M22.7844 5.61657H23.9707V14.6038H22.7844V12.8423C22.0294 14.0466 20.7532 14.8195 19.1535 14.8195C16.6191 14.8195 14.5161 12.7704 14.5161 10.1102C14.5161 7.44997 16.6191 5.40088 19.1535 5.40088C20.7532 5.40088 22.0294 6.17378 22.7844 7.37807V5.61657ZM19.2434 13.6691C21.2386 13.6691 22.7844 12.1053 22.7844 10.1102C22.7844 8.11502 21.2386 6.55125 19.2434 6.55125C17.2482 6.55125 15.7024 8.11502 15.7024 10.1102C15.7024 12.1053 17.2482 13.6691 19.2434 13.6691Z" fill="white"></path>
  <path d="M12.3625 2.02197V14.6041H11.1043V3.92726L6.70058 11.2968H6.52084L2.1171 3.92726V14.6041H0.858887V2.02197H2.42266L6.61071 9.03201L10.7988 2.02197H12.3625Z" fill="white"></path>
  <defs>
    <clipPath id="clip0_17592_1438">
      <rect width="212.604" height="17.9295" fill="white"></rect>
    </clipPath>
  </defs>
</svg>
