<svg width="121" height="115" viewBox="0 0 121 115" fill="none" xmlns="http://www.w3.org/2000/svg">
<path d="M139.25 91.6129C142.085 87.9952 143.372 83.3785 142.83 78.7792C142.287 74.1799 139.959 69.9739 136.359 67.0867L129.459 61.5537L144.955 41.7824C147.257 38.8462 148.301 35.0989 147.861 31.3663C147.42 27.6341 145.531 24.2219 142.61 21.8793L122.913 6.0818L128.338 -0.840391C131.173 -4.45817 132.461 -9.07527 131.918 -13.6748C131.375 -18.2742 129.047 -22.4801 125.447 -25.3673C121.847 -28.2544 117.268 -29.5876 112.718 -29.0733C108.167 -28.5589 104.017 -26.2378 101.181 -22.6199L95.7558 -15.6978L76.058 -31.4952C73.1369 -33.8379 69.4214 -34.9208 65.7285 -34.5034C62.0353 -34.0859 58.6668 -32.202 56.3655 -29.2658L40.4414 -8.94812L48.9007 -2.16382C56.1525 3.65203 57.3826 14.1146 51.6841 21.3857C45.9853 28.6569 35.6339 29.8321 28.382 24.0162L19.9227 17.2318L3.99861 37.5495C1.69733 40.4858 0.65239 44.2331 1.09289 47.9657C1.53339 51.6981 3.42303 55.1106 6.34417 57.4533L26.5783 73.6809L33.2373 65.1846C38.9361 57.9135 49.2868 56.7379 56.5387 62.5536C63.7905 68.3695 65.0203 78.8327 59.3215 86.1039L52.6624 94.6002L72.8966 110.828C75.8176 113.17 79.5326 114.253 83.2254 113.835C86.9186 113.418 90.287 111.534 92.5883 108.598L108.084 88.8266L114.983 94.3596C118.583 97.2468 123.163 98.5806 127.713 98.0662C132.264 97.5517 136.415 95.2306 139.25 91.6129Z" stroke="white" stroke-width="2"/>
</svg>
