<svg width="19" height="16" viewBox="0 0 19 16" fill="none" xmlns="http://www.w3.org/2000/svg">
<path d="M9.91821e-05 7.96258C9.91821e-05 7.56476 0.158134 7.18323 0.43944 6.90192C0.720745 6.62062 1.10227 6.46258 1.5001 6.46258H13.3801L9.4401 2.52258C9.17514 2.23823 9.03089 1.86214 9.03775 1.47354C9.04461 1.08494 9.20203 0.714167 9.47686 0.439341C9.75168 0.164515 10.1225 0.00708866 10.5111 0.000232697C10.8997 -0.00662422 11.2757 0.137624 11.5601 0.402584L18.0601 6.90258C18.341 7.18383 18.4988 7.56508 18.4988 7.96258C18.4988 8.36009 18.341 8.74133 18.0601 9.02258L11.5601 15.5226C11.4228 15.67 11.2572 15.7882 11.0732 15.8701C10.8892 15.9521 10.6905 15.9962 10.4891 15.9998C10.2877 16.0033 10.0877 15.9663 9.9009 15.8908C9.71413 15.8154 9.54446 15.7031 9.40202 15.5607C9.25958 15.4182 9.1473 15.2486 9.07185 15.0618C8.99641 14.875 8.95936 14.6749 8.96292 14.4735C8.96647 14.2721 9.01055 14.0735 9.09254 13.8895C9.17452 13.7055 9.29273 13.5399 9.4401 13.4026L13.3801 9.46258H1.5001C0.6721 9.46258 9.91821e-05 8.79058 9.91821e-05 7.96258Z" fill="black"/>
</svg>
