<svg width="50" height="50" viewBox="0 0 50 50" fill="none" xmlns="http://www.w3.org/2000/svg">
<path fill-rule="evenodd" clip-rule="evenodd" d="M15.2083 14.7044C13.7385 10.2988 12.5651 5.79989 11.6958 1.23772C11.6622 1.03102 11.7065 0.819214 11.8201 0.643301C11.9337 0.467388 12.1086 0.339873 12.3108 0.285432C12.513 0.230991 12.7282 0.253496 12.9148 0.348591C13.1013 0.443686 13.246 0.60461 13.3208 0.80022C15.976 7.35172 18.0303 14.131 19.4583 21.0544C19.4914 21.2697 19.4447 21.4896 19.3268 21.6728C19.2089 21.8559 19.028 21.9896 18.8183 22.0486C18.6087 22.1075 18.3847 22.0877 18.1886 21.9928C17.9925 21.8979 17.838 21.7346 17.7541 21.5336C17.1121 19.9817 16.5078 18.4146 15.9416 16.8336C14.3684 19.0263 13.2603 21.5176 12.6853 24.1544C18.4458 24.1544 24.202 24.4877 29.927 25.1565C30.1638 25.1427 30.3963 25.2235 30.5735 25.3811C30.7507 25.5388 30.858 25.7603 30.8718 25.9971C30.8856 26.2339 30.8048 26.4664 30.6472 26.6436C30.4895 26.8208 30.2679 26.9281 30.0312 26.9419C26.8702 26.7634 23.7054 26.6592 20.5395 26.6294C22.9158 33.5704 24.2279 40.8311 24.4312 48.1648C24.4313 48.3127 24.3946 48.4582 24.3244 48.5884C24.2542 48.7185 24.1528 48.8292 24.0292 48.9104C23.9057 48.9916 23.7638 49.0408 23.6165 49.0536C23.4692 49.0663 23.321 49.0423 23.1853 48.9835C22.9562 49.4752 21.677 49.4836 14.0812 49.5169C11.3145 49.5294 7.71035 49.5461 3.01451 49.5919C2.66564 49.5859 2.33323 49.4425 2.08944 49.1928C1.84566 48.9432 1.71018 48.6075 1.71243 48.2585C1.7291 44.7961 1.79576 40.8752 1.95826 36.9585L1.99368 36.0752C2.41868 25.6398 2.46451 24.5336 3.94576 24.4169C6.12771 24.2865 8.31227 24.2046 10.4978 24.1711C10.339 22.3131 10.6942 20.4472 11.5246 18.7775C12.355 17.1079 13.6287 15.6988 15.2062 14.7044M5.31451 27.0586C4.8416 32.794 4.48118 41.3169 4.37076 47.0002C7.1666 47.0919 9.54785 47.1669 11.5791 47.2294C18.7562 47.4544 21.527 47.5419 22.5874 47.8086C22.1562 45.3002 19.3937 30.7502 18.5812 26.6211C14.1548 26.6211 9.73257 26.7669 5.31451 27.0586Z" fill="#020202"/>
<path fill-rule="evenodd" clip-rule="evenodd" d="M43.0083 0.0961334C31.9042 -1.22262 30.2687 11.417 38.9562 14.0878C40.592 14.5466 42.3361 14.4244 43.8919 13.742C45.4477 13.0597 46.719 11.8593 47.4894 10.3452C48.2599 8.83111 48.4819 7.09682 48.1176 5.43748C47.7534 3.77813 46.8254 2.29627 45.4917 1.24405C45.4004 1.16334 45.2936 1.1021 45.1778 1.06408C45.0621 1.02606 44.9398 1.01205 44.8184 1.02292C44.697 1.03379 44.5791 1.0693 44.472 1.12728C44.3648 1.18527 44.2706 1.26451 44.1951 1.36015C44.1196 1.4558 44.0644 1.56584 44.0329 1.68354C44.0014 1.80125 43.9942 1.92414 44.0119 2.04471C44.0295 2.16528 44.0715 2.28099 44.1354 2.38476C44.1993 2.48853 44.2836 2.57817 44.3833 2.64822C45.2158 3.41765 45.7709 4.44044 45.9625 5.55775C46.154 6.67506 45.9712 7.82434 45.4425 8.82711C44.9138 9.82988 44.0688 10.63 43.0387 11.1032C42.0086 11.5764 40.851 11.6962 39.7458 11.444C34.2917 9.81905 34.5062 1.71488 42.9 1.78363C43.12 1.79144 43.3344 1.71318 43.4976 1.56546C43.6608 1.41774 43.76 1.21221 43.7741 0.992521C43.7882 0.772836 43.7161 0.556308 43.5731 0.388931C43.4301 0.221554 43.2275 0.116518 43.0083 0.0961334ZM45.8375 18.8545C42.8792 14.5253 38.525 17.5586 36.3021 17.9232C33.8719 17.852 31.4537 17.5535 29.0792 17.0315C21.8917 16.8607 21.6292 26.1232 30.4708 27.1232C40.0021 28.1795 36.2958 20.4461 37.5333 42.7274C37.7333 46.5357 38.1042 50.3253 42.5583 49.9774C46.8708 49.6545 47.6167 45.5524 47.95 41.2482C48.1958 38.1357 48.4292 22.6732 45.8375 18.8545ZM44.3021 19.9336C42.1604 17.019 39.3583 19.5795 36.7104 20.117C34.1458 20.1586 31.5812 19.9503 29.0562 19.4961C24.8229 19.5315 25.6479 23.9065 30.7604 24.4336C42.1271 25.6065 38.8812 15.6441 40.2729 42.5857C40.4042 45.342 40.1542 47.467 42.3875 47.3295C46.3208 47.0795 45.7979 36.2545 45.7979 32.3461C46.3562 28.1503 45.8396 23.8795 44.3021 19.9336Z" fill="#0095DA"/>
</svg>
