<svg width="50" height="50" viewBox="0 0 50 50" fill="none" xmlns="http://www.w3.org/2000/svg">
<path fill-rule="evenodd" clip-rule="evenodd" d="M24.4688 22.9653C24.6333 22.9269 24.7786 22.8309 24.8786 22.6948C24.9786 22.5586 25.0267 22.3912 25.0141 22.2228C25.0015 22.0543 24.9292 21.8959 24.8101 21.7761C24.691 21.6563 24.533 21.583 24.3646 21.5694C22.6946 21.6465 21.0476 21.1562 19.6916 20.1785C18.3356 19.2007 17.3502 17.7929 16.8958 16.184C16.2921 14.1471 16.249 11.9851 16.7708 9.92569C16.8806 10.0229 16.9986 10.1062 17.125 10.1757C19.2584 11.0498 21.5947 11.3062 23.8669 10.9157C26.1392 10.5252 28.2558 9.50354 29.975 7.96736C30.3583 8.7868 30.8306 9.55069 31.3917 10.259C33.0208 11.8236 35.7333 12.1174 36.3583 13.0757C36.4151 13.2063 36.5194 13.3106 36.65 13.3674C36.2395 15.5921 35.1375 17.6307 33.501 19.1927C31.8645 20.7548 29.7769 21.7607 27.5354 22.0674C27.3988 22.1199 27.2849 22.2187 27.2137 22.3466C27.1425 22.4745 27.1184 22.6233 27.1457 22.7672C27.173 22.911 27.2499 23.0407 27.363 23.1336C27.4761 23.2265 27.6182 23.2768 27.7646 23.2757C43.7854 20.5028 40.9479 -0.690978 27.6396 0.0173555C8.78126 1.45694 12.2229 23.9653 24.4688 22.9632M36.775 11.1153C34.8606 9.66266 32.8612 8.32556 30.7875 7.1111C31.7153 6.13333 32.5708 5.09722 33.3542 4.00277C34.3889 4.87053 35.2286 5.94719 35.8181 7.16215C36.4076 8.37712 36.7337 9.70296 36.775 11.0528V11.1153ZM32.125 3.23194C30.1643 5.49766 27.6383 7.20345 24.8042 8.17569C22.9271 8.75902 18.7542 9.49027 17.3979 8.57152C17.4252 8.48331 17.4252 8.38891 17.3979 8.30069C19.9 2.91944 28.0979 1.14861 32.125 3.23194Z" fill="white"/>
<path fill-rule="evenodd" clip-rule="evenodd" d="M23.1335 14.9966C23.1974 15.0615 23.2736 15.113 23.3577 15.1482C23.4417 15.1833 23.5319 15.2014 23.623 15.2014C23.7142 15.2014 23.8044 15.1833 23.8884 15.1482C23.9724 15.113 24.0487 15.0615 24.1126 14.9966C24.6335 14.4966 23.946 11.8258 21.6314 12.0362C18.9605 12.3278 18.9605 15.2487 20.1501 15.0799C21.3376 14.9133 21.421 12.7653 23.1335 14.9966ZM32.6251 15.2903C33.146 14.7903 31.9168 11.4924 29.8293 11.7841C28.621 12.1174 27.2418 14.1424 28.0147 14.6008C28.0929 14.6847 28.1919 14.7463 28.3018 14.7793C28.4116 14.8122 28.5283 14.8153 28.6397 14.7883C28.7889 14.7728 28.9269 14.7023 29.0271 14.5906C29.1272 14.479 29.1822 14.3341 29.1814 14.1841C30.7876 12.9549 31.4564 16.3758 32.6251 15.2903ZM28.723 18.7945C28.8187 18.655 28.8613 18.4858 28.8431 18.3176C28.8249 18.1494 28.747 17.9933 28.6237 17.8775C28.5003 17.7617 28.3396 17.6939 28.1706 17.6863C28.0016 17.6787 27.8354 17.7319 27.7022 17.8362C27.2855 18.1278 26.8251 18.0653 25.3439 18.0653C24.9122 18.1788 24.4542 18.1344 24.0522 17.9403C24.0011 17.8759 23.9376 17.8224 23.8654 17.783C23.7933 17.7436 23.7139 17.7191 23.6321 17.7109C23.5503 17.7027 23.4677 17.711 23.3891 17.7353C23.3106 17.7596 23.2377 17.7994 23.1748 17.8524C23.1119 17.9054 23.0603 17.9705 23.023 18.0437C22.9858 18.117 22.9636 18.197 22.9578 18.2791C22.952 18.3611 22.9627 18.4434 22.9893 18.5212C23.0159 18.599 23.0578 18.6707 23.1126 18.732C23.3902 19.2291 23.7941 19.6441 24.2835 19.9351C24.7729 20.226 25.3304 20.3826 25.8997 20.3889C26.469 20.3953 27.0299 20.2512 27.5257 19.9712C28.0214 19.6912 28.4345 19.2853 28.723 18.7945Z" fill="white"/>
<path fill-rule="evenodd" clip-rule="evenodd" d="M41.0314 44.7008C37.0632 45.149 33.1585 46.045 29.3918 47.3716C28.2835 47.7369 27.1988 48.1605 26.1377 48.6424C26.2627 48.2674 27.6377 30.3299 26.6793 29.3903C26.4793 29.1508 26.1969 28.9947 25.8877 28.9528C24.4064 28.807 22.7793 25.407 17.8147 23.7799C15.5945 23.1523 13.2991 22.8299 10.9918 22.8216C10.221 22.8216 8.67933 22.6737 8.30225 23.4049C8.2654 23.5056 8.25337 23.6136 8.26717 23.7199C8.28097 23.8262 8.3202 23.9276 8.38154 24.0156C8.44287 24.1035 8.52449 24.1753 8.61949 24.2249C8.71449 24.2746 8.82006 24.3006 8.92725 24.3008H10.8043C16.3752 25.6549 19.7127 26.1362 24.3439 29.932C25.7606 31.2674 24.1772 35.4403 24.7606 47.7466C23.237 47.123 21.6724 46.6369 20.0668 46.2883C16.1668 44.8674 12.8293 45.307 9.13558 44.8674H6.48766C5.571 44.8674 5.31891 44.8674 5.31891 43.4091C5.31891 41.3216 5.96475 40.1966 4.98558 40.1133C4.82426 40.1067 4.66634 40.1608 4.54294 40.265C4.41954 40.3691 4.33961 40.5156 4.31891 40.6758C4.06891 42.907 2.60641 45.7028 5.69391 46.6633C6.71614 46.8535 7.7453 46.9855 8.78141 47.0591C12.4314 47.7674 16.1252 47.2674 19.4835 48.1424C21.3934 49.0914 23.4678 49.665 25.5939 49.832C25.5939 50.0612 26.3439 50.6862 40.9689 46.3903C41.4127 46.1778 41.8231 45.8966 42.1772 45.557C42.2291 45.4066 42.2318 45.2436 42.1849 45.0915C42.138 44.9395 42.044 44.8063 41.9165 44.7112C41.7889 44.6161 41.6344 44.5641 41.4753 44.5626C41.3162 44.5611 41.1608 44.6081 41.0314 44.7008Z" fill="white"/>
<path fill-rule="evenodd" clip-rule="evenodd" d="M12.6813 32.1027C12.4938 31.311 12.223 29.8693 11.1188 29.2235C8.92179 28.4346 6.5083 28.5015 4.35839 29.411C3.66362 30.0237 3.11937 30.7882 2.76786 31.6452C2.41635 32.5022 2.26704 33.4287 2.33152 34.3528C2.396 35.2768 2.67253 36.1736 3.13966 36.9735C3.60678 37.7734 4.25194 38.4549 5.02506 38.9652C5.75666 39.603 6.64731 40.0308 7.60247 40.2032C8.55763 40.3756 9.54164 40.2861 10.4501 39.9443C13.2042 38.4652 13.5584 35.1464 12.6813 32.1027ZM9.30214 37.9402C9.09186 38.0319 8.8649 38.0793 8.63547 38.0793C8.40604 38.0793 8.17908 38.0319 7.96881 37.9402C3.46256 36.7318 3.19172 32.5797 5.33964 30.411C6.77714 31.2443 9.05214 30.1193 10.0959 30.8277C10.4084 31.0777 11.9271 36.4797 9.30214 37.9402Z" fill="white"/>
<path fill-rule="evenodd" clip-rule="evenodd" d="M6.23551 27.4299C6.52718 25.6778 6.79801 23.257 5.63135 23.257C5.44385 23.257 5.19385 23.257 5.06885 23.4445C4.66988 24.7003 4.45926 26.0082 4.44385 27.3257C4.54801 28.7841 6.11051 28.5132 6.23551 27.4299ZM42.5334 25.0507C42.7418 25.9695 42.8876 26.6778 43.0126 27.2632C43.5334 28.6799 44.9105 28.2841 44.6584 26.6799C44.3702 25.5993 44.175 24.4959 44.0751 23.382C44.0336 22.7476 43.793 22.1425 43.3876 21.6528C43.0165 21.3399 42.5386 21.1831 42.0543 21.2153C39.6278 21.5209 37.2507 22.137 34.9813 23.0487C33.3543 23.6945 26.6376 27.0341 26.4918 28.2424C26.4826 28.4073 26.5331 28.5699 26.634 28.7006C26.735 28.8313 26.8795 28.9213 27.0414 28.9542C27.2032 28.9871 27.3714 28.9606 27.5153 28.8796C27.6592 28.7987 27.7692 28.6686 27.8251 28.5132C31.7037 26.5651 35.7723 25.0209 39.9668 23.9049C41.4876 23.4882 41.8438 22.1737 42.5334 25.0507ZM43.2418 41.2591C43.1837 42.7323 43.3667 44.2052 43.7834 45.6195C43.9709 45.8695 44.7209 46.0362 45.0543 45.057C45.3813 43.9112 45.5209 42.7216 45.473 41.5299C45.3846 41.3195 45.2422 41.1361 45.06 40.9985C44.8779 40.8609 44.6626 40.774 44.436 40.7465C44.2095 40.719 43.9796 40.7519 43.7699 40.8419C43.5601 40.932 43.3779 41.0759 43.2418 41.2591Z" fill="white"/>
<path fill-rule="evenodd" clip-rule="evenodd" d="M47.6418 32.2694C47.4744 30.9912 46.8444 29.8187 45.8709 28.9736C45.6418 28.7653 45.4751 28.8069 45.0355 28.7861C44.7312 28.7708 44.4268 28.8163 44.1403 28.9201C43.8537 29.0238 43.5908 29.1837 43.3668 29.3903C42.4501 31.4757 40.0293 30.0986 38.3397 31.4757C37.9117 31.9135 37.591 32.4447 37.4031 33.0274C37.2151 33.6102 37.1649 34.2286 37.2563 34.834C37.6632 36.615 38.6441 38.2129 40.048 39.3819C40.4765 39.8113 41.0128 40.1172 41.6005 40.2675C42.1882 40.4178 42.8055 40.407 43.3876 40.2361C46.4126 39.3403 47.9563 34.8757 47.6418 32.2694ZM41.698 37.5673C41.573 37.4007 40.0709 34.8757 39.6126 33.9798C39.6126 33.2715 39.6126 32.9173 40.0501 32.7507C41.2584 32.1861 44.0126 32.2278 44.9105 29.7653C45.3451 30.1852 45.6794 30.6978 45.8886 31.2648C46.0978 31.8318 46.1765 32.4387 46.1188 33.0403C45.9401 34.2701 45.492 35.4454 44.8063 36.4819C44.0563 37.5673 42.573 38.5486 41.698 37.5673Z" fill="white"/>
</svg>
