<svg width="21" height="21" viewBox="0 0 21 21" fill="none" xmlns="http://www.w3.org/2000/svg">
<path d="M11 2.5V4H15C15.5304 4 16.0391 4.21071 16.4142 4.58579C16.7893 4.96086 17 5.46957 17 6V10H18.5C19.163 10 19.7989 10.2634 20.2678 10.7322C20.7366 11.2011 21 11.837 21 12.5C21 13.163 20.7366 13.7989 20.2678 14.2678C19.7989 14.7366 19.163 15 18.5 15H17V19C17 19.5304 16.7893 20.0391 16.4142 20.4142C16.0391 20.7893 15.5304 21 15 21H11.2V19.5C11.2 18 10 16.8 8.5 16.8C7 16.8 5.8 18 5.8 19.5V21H2C1.46957 21 0.960859 20.7893 0.585787 20.4142C0.210714 20.0391 0 19.5304 0 19V15.2H1.5C3 15.2 4.2 14 4.2 12.5C4.2 11 3 9.8 1.5 9.8H0V6C0 5.46957 0.210714 4.96086 0.585787 4.58579C0.960859 4.21071 1.46957 4 2 4H6V2.5C6 1.83696 6.26339 1.20107 6.73223 0.732233C7.20107 0.263391 7.83696 0 8.5 0C9.16304 0 9.79893 0.263391 10.2678 0.732233C10.7366 1.20107 11 1.83696 11 2.5Z" fill="black"/>
</svg>
