<svg width="213" height="18" viewBox="0 0 213 18" fill="none" xmlns="http://www.w3.org/2000/svg">
<g clip-path="url(#clip0_20588_182)">
<path d="M99.4435 16.2899L98.2527 15.2114C94.0175 11.3245 91.2315 8.80804 91.2315 5.66251C91.1865 3.19102 93.1525 1.15766 95.624 1.12396C95.6689 1.12396 95.7139 1.12396 95.7476 1.12396C97.1743 1.12396 98.5224 1.7643 99.4435 2.86523C100.365 1.77553 101.713 1.13519 103.14 1.12396C105.611 1.09026 107.633 3.06745 107.656 5.53893C107.656 5.58387 107.656 5.62881 107.656 5.66251C107.656 8.80804 104.858 11.3245 100.634 15.2114L99.4435 16.2787V16.2899Z" fill="#0095DA"/>
<mask id="mask0_20588_182" style="mask-type:luminance" maskUnits="userSpaceOnUse" x="137" y="0" width="76" height="17">
<path d="M212.604 0H137.707V16.2893H212.604V0Z" fill="white"/>
</mask>
<g mask="url(#mask0_20588_182)">
<path d="M204.044 12.6613C204.549 13.1668 204.549 13.9757 204.044 14.4812C201.673 16.8516 197.831 16.8516 195.461 14.4812C193.091 12.1108 193.091 8.26877 195.461 5.89839C197.831 3.52801 201.673 3.52801 204.044 5.89839C204.549 6.40392 204.549 7.22401 204.044 7.72954L200.673 11.0997C200.168 11.6053 199.359 11.6053 198.854 11.0997C198.348 10.5942 198.348 9.78537 198.854 9.27983L201.145 6.98809C199.382 6.22418 197.326 7.04426 196.573 8.808C195.809 10.5717 196.629 12.6276 198.393 13.3803C199.696 13.942 201.213 13.6499 202.224 12.65C202.729 12.1445 203.538 12.1445 204.044 12.65" fill="white"/>
<path d="M209.459 16.2896C207.728 16.2896 206.324 14.8853 206.324 13.1553C206.324 11.4252 207.728 10.021 209.459 10.021C211.189 10.021 212.593 11.4252 212.593 13.1553C212.593 14.8853 211.189 16.2896 209.459 16.2896ZM209.459 11.942C208.796 11.942 208.256 12.4812 208.256 13.1441C208.256 13.8069 208.796 14.3461 209.459 14.3461C210.121 14.3461 210.661 13.8069 210.661 13.1441C210.661 12.4812 210.121 11.942 209.459 11.942Z" fill="white"/>
<path d="M143.773 4.13412C142.526 4.13412 141.313 4.51608 140.291 5.23506V0.763914C140.291 0.337021 139.954 0 139.527 0C138.527 0 137.718 0.80885 137.718 1.80868V10.2005C137.718 13.5482 140.437 16.2669 143.785 16.2669C147.132 16.2669 149.851 13.5482 149.851 10.2005C149.851 6.85276 147.132 4.13412 143.785 4.13412M143.785 13.683C141.864 13.683 140.302 12.1215 140.302 10.2005C140.302 8.27948 141.864 6.71795 143.785 6.71795C145.706 6.71795 147.267 8.27948 147.267 10.2005C147.267 12.1215 145.706 13.683 143.785 13.683Z" fill="white"/>
<path d="M162.849 5.62883V10.2011C162.714 13.5488 159.883 16.1551 156.535 16.0203C153.378 15.8967 150.851 13.3578 150.716 10.2011V6.14559C150.716 5.14576 151.525 4.33691 152.524 4.33691C152.951 4.33691 153.288 4.68517 153.288 5.10083V10.1898C153.288 12.1109 154.85 13.6724 156.771 13.6724C158.692 13.6724 160.253 12.1109 160.253 10.1898V5.62883C160.253 4.92108 160.826 4.33691 161.545 4.33691C162.264 4.33691 162.837 4.90985 162.837 5.62883" fill="white"/>
<path d="M169.948 4.10042C168.701 4.10042 167.488 4.48238 166.466 5.20136V0.763914C166.466 0.337021 166.129 0 165.702 0C164.702 0 163.893 0.80885 163.893 1.80868V10.2005C163.905 13.5482 166.634 16.2556 169.993 16.2332C173.341 16.2219 176.049 13.4921 176.026 10.1331C176.015 6.79659 173.296 4.08919 169.96 4.10042M169.96 13.6493C168.039 13.6493 166.477 12.0878 166.477 10.1668C166.477 8.24578 168.039 6.68425 169.96 6.68425C171.881 6.68425 173.442 8.24578 173.442 10.1668C173.442 12.0878 171.881 13.6493 169.96 13.6493Z" fill="white"/>
<path d="M183.002 4.10042C181.755 4.10042 180.542 4.48238 179.52 5.20136V0.763914C179.52 0.337021 179.183 0 178.756 0C177.756 0 176.947 0.80885 176.947 1.80868V10.2342C176.981 13.5819 179.722 16.2781 183.07 16.2444C186.418 16.2107 189.114 13.4696 189.08 10.1219C189.046 6.79659 186.339 4.11166 183.014 4.11166M183.014 13.6606C181.093 13.6606 179.531 12.0991 179.531 10.178C179.531 8.25701 181.093 6.69548 183.014 6.69548C184.935 6.69548 186.496 8.25701 186.496 10.178C186.496 12.0991 184.935 13.6606 183.014 13.6606Z" fill="white"/>
<path d="M191.9 0H191.922C192.338 0 192.675 0.337021 192.675 0.763914V14.8963C192.675 15.6041 192.102 16.1882 191.383 16.1882C190.675 16.1882 190.091 15.6153 190.091 14.8963V1.79744C190.091 0.80885 190.9 0 191.888 0" fill="white"/>
</g>
</g>
<defs>
<clipPath id="clip0_20588_182">
<rect width="212.604" height="17.9295" fill="white"/>
</clipPath>
</defs>
</svg>
